<svg xmlns="http://www.w3.org/2000/svg" width="80" height="80" fill="none" viewBox="0 0 80 80"><path fill="#000" d="M68.036 73.52c.024.242.405.244.38.001a2.24 2.24 0 0 1 1.552-2.363c.796-.252 1.6.046 1.836.891q.157.558.006 1.067h-.01c-.348-.007-.68.087-.998.225-.243.105-.582.272-.632.564-.058.335.328.556.61.598.346.052.663-.144.89-.39q.25-.275.392-.59.077.012.154.03c.695.179 1.29.762 1.388 1.489.085.643-.415 1.029-1.002 1.145a1.8 1.8 0 0 0-.562-.522c-.439-.25-.905-.139-1.083.354-.02.058 0 .146.049.185.39.318.903.435 1.403.39.153.278.235.598.189.909-.079.53-.545 1.035-1.068 1.148-1.055.23-2.087-.897-2.395-1.794-.08-.23-.447-.131-.367.1a3.37 3.37 0 0 0 1.488 1.803c.575.326 1.286.424 1.866.052.59-.378.953-1.059.844-1.759a2 2 0 0 0-.166-.528c.12-.033.238-.071.35-.123.774-.356 1.012-1.145.69-1.914-.286-.684-.928-1.182-1.65-1.326.08-.313.09-.645.032-.986-.095-.543-.39-1.064-.897-1.315-.463-.228-1.01-.219-1.493-.058-1.145.382-1.92 1.506-1.796 2.718m4.099 2.703a1.56 1.56 0 0 1-.75-.212c.189-.243.563.02.75.212m-.494-2.718-.041.075c-.14.224-.359.504-.64.547a.5.5 0 0 1-.363-.102c-.08-.055-.06-.062.004-.129.169-.176.47-.268.698-.333q.169-.047.342-.058m-3.897.965-6.691-.012a.205.205 0 0 1 0-.41l6.691.013a.205.205 0 0 1 0 .41m-.114 1.801-4.191-.007a.205.205 0 0 1 0-.41l4.191.008a.205.205 0 0 1 0 .41M24.189 49.507c-7.042 7.549-10.39 17.586-9.212 27.878.247 2.154 3.627 1.973 3.379-.195-1.083-9.455 1.887-18.493 8.36-25.432 1.488-1.596-1.041-3.844-2.527-2.251"/><path fill="#FF558B" d="M18.464 74.952s2.157-1.744-2.15-1.885c-4.617-.152-1.713 1.794-1.713 1.794l-.695.388s-4.957-3.95-6.842-.071 3.477 4.585 6.766 4.666 6.815.854 4.634-4.892"/><path fill="#000" d="M16.148 80c-.433 0-.89-.02-1.353-.041a47 47 0 0 0-.967-.037c-2.6-.064-5.913-.491-6.928-2.159-.435-.714-.403-1.596.094-2.62.447-.92 1.103-1.483 1.95-1.675 1.152-.26 2.454.222 3.344.673.826.419 1.46.889 1.625 1.014l.542-.302c-.27-.2-.965-.772-.81-1.25.15-.468 1.024-.668 2.672-.615 1.637.054 2.557.35 2.734.878.16.48-.34.972-.494 1.11.761 2.025.86 3.385.302 4.157-.518.715-1.53.867-2.71.867m-6.513-6.45q-.335-.001-.656.07c-.799.181-1.42.717-1.844 1.592-.473.973-.507 1.804-.101 2.47.442.726 1.913 1.963 6.798 2.083q.486.014.97.038c1.683.075 3.272.147 3.93-.762.53-.732.419-2.061-.341-4.062l-.02-.052.044-.036c.006-.005.639-.525.488-.975-.107-.317-.642-.707-2.591-.772-1.928-.063-2.434.24-2.52.507-.124.387.573.958.852 1.145l.106.07-.852.476-.041-.032c-.024-.02-2.234-1.76-4.222-1.76"/><path fill="#000" d="M17.016 75.312q-.207 0-.438-.021l.015-.156c1.116.108 1.828-.25 1.835-.253l.071.14c-.026.013-.58.29-1.483.29m-1.674-.142c-.077 0-.34-.019-.776-.24l.07-.139c.469.237.713.223.716.223l.013.156zm-1.431.073c.163.077.307.174.445.277a4.7 4.7 0 0 1 .747.705c.111.132.216.27.303.427l-.01.012-.754-.7-.742-.71z"/><path fill="#000" d="M13.914 75.248c.065.138.104.277.133.418a3.2 3.2 0 0 1 .06.85c-.01.142-.028.286-.073.432h-.015l-.068-.848-.053-.85z"/><path fill="#fff" d="M9.481 74.174c-.149.078-.296.154-.43.251-.07.042-.134.093-.2.139q-.096.076-.189.153a2.5 2.5 0 0 0-.597.734 2.4 2.4 0 0 0-.307.894l-.024.119-.008.121-.017.245c-.01.164.007.33-.003.5l-.015.003c-.02-.166-.051-.331-.064-.498l-.003-.252-.001-.126.015-.125.03-.25.065-.243c.017-.084.055-.16.087-.237.032-.078.062-.157.109-.227.163-.295.391-.551.659-.754s.568-.362.889-.462z"/><path fill="#000" d="M53.415 68.31c-2.606.915-5.187 1.904-7.81 2.771-2.48.82-5.395 1.637-8.02 1.064-6.48-1.413-.996-9.175.965-12.315 1.157-1.853-1.77-3.553-2.921-1.708-2.785 4.458-7.855 12.5-1.428 16.31 6.047 3.586 14.287-.813 20.113-2.86 2.041-.717 1.163-3.987-.9-3.263"/><path fill="#FF558B" d="M49.978 69.087s-2.43-1.336-.93 2.704c1.608 4.33 2.31.906 2.31.906l.621.496s-1.779 6.084 2.526 6.359 2.926-4.955 1.756-8.03-1.79-6.63-6.283-2.435"/><path fill="#000" d="M54.82 79.64q-.155 0-.32-.01c-1.02-.065-1.791-.459-2.29-1.171-.677-.966-.723-2.355-.643-3.35.075-.922.27-1.687.323-1.887l-.485-.387c-.083.326-.35 1.186-.85 1.224-.491.038-1.007-.695-1.58-2.241-.57-1.535-.646-2.499-.224-2.863.384-.331 1.028-.054 1.214.037 1.586-1.472 2.807-2.078 3.733-1.853 1.173.284 1.722 1.82 2.304 3.447q.16.456.332.909c.925 2.431 1.785 5.659.626 7.23-.449.608-1.168.916-2.14.916m-3.514-7.084.763.609-.015.05c-.01.034-.965 3.373.284 5.154.47.671 1.201 1.043 2.172 1.105 1.078.068 1.861-.214 2.324-.842.505-.684 1.092-2.514-.646-7.081a50 50 0 0 1-.333-.912c-.567-1.586-1.103-3.084-2.194-3.349-.878-.213-2.066.394-3.63 1.854l-.04.038-.05-.027c-.008-.004-.728-.392-1.088-.082-.252.219-.41.863.268 2.69.67 1.808 1.148 2.165 1.422 2.14.406-.031.67-.893.738-1.222z"/><path fill="#000" d="M50.857 70.75c-.322-1.07-.924-1.599-.93-1.604l.102-.118c.026.022.641.56.977 1.676zm.578 1.953-.156-.012c.042-.524-.064-.745-.065-.747l.14-.071c.005.01.127.254.081.83m.537.487c.01-.18.045-.35.088-.516a4.7 4.7 0 0 1 .37-.96c.08-.152.167-.302.28-.442l.015.006-.362.962-.376.956z"/><path fill="#000" d="M51.976 73.187a1.8 1.8 0 0 1 .336-.282 3.3 3.3 0 0 1 .764-.378 2 2 0 0 1 .427-.096l.007.014-.76.385-.767.37z"/><path fill="#fff" d="M52.66 77.695c.13.109.255.216.396.303.065.05.137.09.204.134q.106.059.214.115c.287.144.59.25.905.275.31.042.632.028.944-.054l.119-.023.115-.038.233-.077c.156-.053.302-.131.464-.187l.009.013c-.146.082-.288.173-.437.248l-.232.098-.116.049-.122.033-.243.066-.25.033c-.083.016-.167.01-.251.01s-.169 0-.252-.016a2.4 2.4 0 0 1-.947-.324 3 3 0 0 1-.765-.648z"/><path fill="#000" d="M71.458 32.647c-.082-.42-.716-.208-.634.21.304 1.557.544 3.152.419 4.743-.118 1.485-.925 2.716-1.86 3.833-.907 1.084-1.812 2.121-2.4 3.426a7.7 7.7 0 0 0-.604 4.001c.18 1.495.714 2.926 1.101 4.373.408 1.53.505 3.013.253 4.578-.212 1.31-.75 2.52-1.796 3.374-1.028.84-2.285 1.185-3.588.882-1.517-.353-2.859-1.32-3.971-2.376a11.4 11.4 0 0 1-1.642-1.97c-.47-.71-.779-1.486-1.095-2.274-.159-.396-.794-.19-.634.21.287.716.562 1.438.962 2.1a12 12 0 0 0 1.388 1.843c.982 1.08 2.192 2.046 3.524 2.657 1.24.569 2.658.827 3.965.323a5.56 5.56 0 0 0 2.761-2.338c.752-1.26.946-2.839.954-4.282.008-1.636-.526-3.192-.966-4.748-.454-1.603-.781-3.148-.421-4.807.333-1.534 1.252-2.848 2.265-4.012 1.052-1.208 2.169-2.582 2.408-4.217.268-1.84-.036-3.721-.389-5.529"/><path fill="#FFD200" d="m70.649 29.414.051 1.776-.507.014-.052-1.776c0-.034.026-.063.06-.064l.384-.01a.06.06 0 0 1 .064.06"/><path fill="#000" d="m70.117 31.285-.054-1.854a.14.14 0 0 1 .136-.145l.383-.011a.145.145 0 0 1 .145.136l.054 1.855zm.103-1.843.049 1.682.35-.01-.048-1.682z"/><path fill="#FFD200" d="m71.924 29.376.051 1.776-.507.015-.052-1.776c0-.034.026-.063.06-.064l.384-.011a.06.06 0 0 1 .064.06"/><path fill="#000" d="m71.392 31.248-.054-1.854a.14.14 0 0 1 .136-.145l.383-.011a.14.14 0 0 1 .145.136l.054 1.855zm.103-1.843.049 1.682.35-.01-.048-1.682z"/><path fill="#000" d="m69.584 30.695.075 2.6 2.843-.082-.076-2.6z"/><path fill="#000" d="m69.586 33.379-.08-2.757 2.999-.087.08 2.757zm.08-2.606.072 2.445 2.686-.078-.071-2.444z"/><path fill="#FFD200" d="M66.77 45.502a1.366 1.366 0 0 1-1.295 1.435q-.05.004-.1.002h-.003a1.4 1.4 0 0 1-.572-.142q-.15-.073-.277-.183a1.36 1.36 0 0 1-.181-1.896 1.365 1.365 0 0 1 2.43.785"/><path fill="#000" d="m65.404 47.018-.033-.001a1.5 1.5 0 0 1-.605-.15 1.4 1.4 0 0 1-.294-.194 1.44 1.44 0 0 1-.191-2.005 1.43 1.43 0 0 1 1.054-.54 1.43 1.43 0 0 1 1.04.371 1.447 1.447 0 0 1-.972 2.518m.004-2.735a1.28 1.28 0 0 0-1.005.483 1.284 1.284 0 0 0 .17 1.788q.12.105.261.173.257.125.54.134.053.002.097-.002a1.29 1.29 0 0 0-.063-2.576"/><path fill="#FFD200" d="M71.18 55.395a1.366 1.366 0 0 1-1.396 1.437h-.003a1.4 1.4 0 0 1-.572-.142 1.3 1.3 0 0 1-.277-.184 1.36 1.36 0 0 1-.181-1.896 1.365 1.365 0 0 1 2.43.785"/><path fill="#000" d="M69.813 56.91h-.033a1.5 1.5 0 0 1-.605-.15 1.4 1.4 0 0 1-.294-.194 1.44 1.44 0 0 1-.191-2.005 1.43 1.43 0 0 1 1.054-.54 1.43 1.43 0 0 1 1.04.371c.287.259.454.613.474.999a1.44 1.44 0 0 1-.371 1.043 1.43 1.43 0 0 1-1.074.476m.005-2.735-.066.002a1.28 1.28 0 0 0-.94.481 1.284 1.284 0 0 0 .17 1.788q.122.105.261.174c.17.082.353.128.54.134q.053.001.097-.002a1.283 1.283 0 0 0 1.221-1.353 1.28 1.28 0 0 0-.421-.891 1.28 1.28 0 0 0-.862-.333"/><path fill="#FFD200" d="M64.076 60.774a1.366 1.366 0 0 1-1.396 1.437h-.003a1.4 1.4 0 0 1-.572-.142 1.3 1.3 0 0 1-.277-.184 1.36 1.36 0 0 1-.181-1.896 1.365 1.365 0 0 1 2.43.785"/><path fill="#000" d="m62.71 62.29-.034-.002a1.5 1.5 0 0 1-.605-.149 1.4 1.4 0 0 1-.294-.195 1.44 1.44 0 0 1-.191-2.004 1.43 1.43 0 0 1 1.054-.54c.387-.02.755.113 1.04.371.287.259.455.613.474.999s-.113.757-.371 1.043a1.43 1.43 0 0 1-1.074.476m.004-2.736-.066.002a1.27 1.27 0 0 0-.94.481 1.285 1.285 0 0 0 .431 1.961q.258.126.54.134.053.002.097-.001c.344-.017.66-.167.89-.422.232-.256.35-.587.332-.931a1.28 1.28 0 0 0-.422-.891 1.28 1.28 0 0 0-.862-.333"/><path fill="#006658" d="M61.944 68.035a238.4 238.4 0 0 1-34.088-7.52l3.213-1.186-8.771-1.544c1.35-.211 3.316-.336 4.452-.673a62.4 62.4 0 0 1-9.86-3.055 62.4 62.4 0 0 1-10.677-5.55 22.4 22.4 0 0 0 8.397-4.16q-3.673.368-7.351.742a75 75 0 0 0 8.238-4.928l.08-.054.469-.325q.178-.122.355-.251.407-.286.813-.582a76 76 0 0 0 8.011-6.729l-5.952-.705a92 92 0 0 0 10.232-5.693q.272-.173.544-.351l.016-.011q.414-.271.82-.542 1.34-.901 2.58-1.79l.213-.155q.309-.225.607-.445l.103-.075a91 91 0 0 0 2.562-1.967q-2.847-.415-5.694-.825a65 65 0 0 0 8.889-3.55c2.03-.99 3.87-2.018 5.524-3.037l-4.087-.377a79 79 0 0 0 6.023-2.153c.77-.31 1.52-.628 2.25-.945v-.003a81 81 0 0 0 6.703-3.317c-.06.086-1.51 2.211-2.092 6.83-.254 2.008-.341 4.486-.082 7.472a2523 2523 0 0 0-2.082-4.208 56 56 0 0 0 1.642 7.64q.007.031.017.062.072.248.145.491v.003l.024.083c.088.296.18.582.27.872.96 3.017 2.047 5.293 3.13 7.492-1.2-1.451-2.368-2.556-3.567-4.01a82 82 0 0 0 5.294 17.974l-4.226-4.092a63 63 0 0 0 .93 4.968q.053.238.111.48l.018.082q.087.357.18.723c0 .007.004.01.004.017q.227.921.495 1.877a61 61 0 0 0 1.188 3.761l.039.115q.093.276.19.542.082.228.167.453c.534 1.455 1.09 2.8 1.646 4.033a1875 1875 0 0 1-4.086-3.162 28.7 28.7 0 0 0 6.031 11.258"/><path fill="#000" d="m62.141 68.143-.208-.03a242 242 0 0 1-14.358-2.53 239 239 0 0 1-19.741-4.992l-.225-.068 3.162-1.167-8.95-1.576.465-.072c.458-.072.977-.133 1.528-.197.928-.108 1.883-.22 2.607-.394a62.6 62.6 0 0 1-20.25-8.545l-.15-.097.173-.044a22.35 22.35 0 0 0 8.155-3.98l-.113.012q-3.483.348-6.97.703l-.41.042.367-.19a75.5 75.5 0 0 0 8.23-4.922l.08-.054q.231-.163.469-.325.177-.122.353-.25.408-.287.813-.582a76 76 0 0 0 7.884-6.607l-6.057-.718.244-.116a92 92 0 0 0 8.32-4.494 76 76 0 0 0 1.903-1.194 48 48 0 0 0 .565-.365c.27-.178.545-.359.813-.54.895-.6 1.762-1.201 2.58-1.788l.106-.077.107-.078.605-.444.105-.076a91 91 0 0 0 2.417-1.852l-.75-.109a2704 2704 0 0 0-4.764-.69l-.34-.048.327-.103a64.7 64.7 0 0 0 14.195-6.456l-4.242-.392.373-.116a79 79 0 0 0 6.017-2.151 86 86 0 0 0 2.2-.924l.047-.023A81 81 0 0 0 56.52 6.21l.289-.16-.187.273c-.153.224-1.515 2.32-2.079 6.796-.287 2.267-.314 4.775-.08 7.455l.035.414-.184-.373-1.862-3.764c.37 2.421.896 4.82 1.567 7.14l.014.056.147.497.024.084c.079.264.16.519.24.775l.031.097c.942 2.961 2.015 5.229 3.124 7.481l.295.599-.425-.515a47 47 0 0 0-1.77-1.99 51 51 0 0 1-1.609-1.794 83 83 0 0 0 1.654 7.347 82 82 0 0 0 3.585 10.32l.15.355-4.337-4.199a61 61 0 0 0 .896 4.734q.042.195.089.39l.021.09.008.036q.007.024.01.052l.038.149.14.567.002.004a64 64 0 0 0 .497 1.887 61 61 0 0 0 1.206 3.814l.02.062q.093.27.19.537.08.227.166.453a61 61 0 0 0 1.644 4.028l.129.285-.248-.191q-1.951-1.506-3.9-3.018a28.4 28.4 0 0 0 2.23 5.576 28.7 28.7 0 0 0 3.722 5.425zm-34.038-7.635a239 239 0 0 0 19.503 4.922c4.676.97 9.432 1.81 14.142 2.497a28.8 28.8 0 0 1-3.605-5.295 28.5 28.5 0 0 1-2.306-5.835l-.061-.225.184.143q1.919 1.488 3.84 2.972a61 61 0 0 1-1.687-4.207 22 22 0 0 1-.21-.6q-.012-.03-.021-.061a61 61 0 0 1-1.684-5.643l-.005-.02q-.073-.285-.14-.564l-.04-.155-.009-.047-.009-.041-.02-.084q-.047-.197-.09-.392a63 63 0 0 1-.931-4.973l-.033-.227 4.115 3.984a82 82 0 0 1-3.443-9.988 83 83 0 0 1-1.707-7.65l-.05-.291.187.228c.602.73 1.206 1.382 1.79 2.013.448.484.907.98 1.368 1.514-1.013-2.076-1.989-4.213-2.855-6.935l-.03-.098a48 48 0 0 1-.241-.776l-.027-.095-.159-.544a56.5 56.5 0 0 1-1.644-7.651l-.07-.483.217.437q.954 1.92 1.901 3.84c-.197-2.537-.158-4.917.115-7.079.477-3.789 1.528-5.895 1.945-6.607a82 82 0 0 1-6.398 3.154l-.05.025a86 86 0 0 1-2.25.945 80 80 0 0 1-5.66 2.038l3.935.364-.2.122a64.8 64.8 0 0 1-14.106 6.492q2.215.319 4.428.641l1.109.161-.142.113a91 91 0 0 1-2.564 1.968l-.105.076-.605.445-.107.077-.107.078c-.819.587-1.688 1.19-2.583 1.791q-.405.271-.82.543l-.02.014a41 41 0 0 1-.54.349 92 92 0 0 1-9.997 5.581l5.847.693-.118.114a76 76 0 0 1-9.189 7.57q-.238.163-.468.325l-.081.054a76 76 0 0 1-7.883 4.744q3.282-.333 6.562-.661l.646-.065-.209.165a22.5 22.5 0 0 1-8.253 4.13 62.5 62.5 0 0 0 20.362 8.497l.295.065-.29.086c-.758.226-1.867.355-2.94.48-.362.043-.712.084-1.038.127l8.574 1.51z"/><path fill="#000" d="M44.77 20.79a.4.4 0 0 1-.207-.05c-.43-.235-.303-1.061-.19-1.526-.33.32-.96.816-1.445.485a.4.4 0 0 1-.17-.29c-.083-.665 1.095-2 1.145-2.057l.117.104c-.329.37-1.169 1.44-1.108 1.933q.014.12.104.18c.557.382 1.447-.678 1.456-.69l.258-.31-.124.385c-.124.386-.36 1.435.032 1.65.396.218 1.502-.726 1.895-1.108l.109.112c-.137.132-1.235 1.181-1.873 1.181m4.069 10.507a.4.4 0 0 1-.135-.023c-.46-.169-.458-1.005-.416-1.48-.277.365-.826.949-1.356.694a.4.4 0 0 1-.212-.261c-.18-.644.784-2.142.825-2.205l.131.085c-.27.416-.94 1.599-.805 2.078a.24.24 0 0 0 .13.162c.608.293 1.328-.887 1.336-.9l.208-.345-.065.398c-.064.4-.141 1.474.278 1.628.427.156 1.377-.944 1.708-1.38l.125.094c-.12.159-1.123 1.455-1.752 1.455M47.65 51.522h-.003c-.491-.006-.767-.795-.887-1.258-.139.438-.46 1.171-1.046 1.107a.4.4 0 0 1-.287-.176c-.385-.547.025-2.28.043-2.353l.152.036c-.116.482-.353 1.821-.067 2.228a.24.24 0 0 0 .176.11c.667.076.957-1.28.96-1.294l.081-.396.072.398c.073.4.358 1.436.805 1.442h.002c.452 0 .982-1.35 1.148-1.87l.15.047c-.066.203-.651 1.979-1.298 1.979m-24.662-9.436q-.077 0-.145-.026c-.457-.18-.436-1.015-.384-1.49-.285.36-.846.932-1.37.665a.4.4 0 0 1-.206-.266c-.167-.648.83-2.123.872-2.186l.13.088c-.28.41-.975 1.578-.851 2.06a.24.24 0 0 0 .126.165c.602.306 1.348-.859 1.355-.87l.217-.342-.074.397c-.073.4-.173 1.47.243 1.633.42.166 1.397-.913 1.737-1.342l.123.097c-.123.155-1.143 1.417-1.773 1.417m9.596 16.031a.4.4 0 0 1-.144-.026c-.457-.18-.436-1.015-.384-1.49-.285.36-.846.933-1.37.666A.4.4 0 0 1 30.48 57c-.166-.648.83-2.124.873-2.186l.129.087c-.279.41-.974 1.578-.85 2.06a.24.24 0 0 0 .125.166c.603.305 1.349-.86 1.356-.871l.216-.341-.073.397c-.074.399-.174 1.47.242 1.633.42.165 1.397-.914 1.738-1.343l.122.097c-.122.155-1.143 1.417-1.773 1.417m18.872 4.446h-.005c-.492-.008-.764-.798-.881-1.262-.141.437-.47 1.168-1.052 1.102a.4.4 0 0 1-.286-.177c-.382-.55.037-2.28.054-2.353l.152.037c-.118.48-.362 1.819-.078 2.227a.24.24 0 0 0 .176.11c.672.077.964-1.275.967-1.288l.083-.395.07.397c.07.4.35 1.438.797 1.446h.004c.452 0 .987-1.345 1.156-1.865l.148.049c-.066.202-.659 1.972-1.305 1.972"/><path fill="#FFD200" d="M58.977 5.303 60.549.71l-3.902 2.834-3.962-3.13 2.02 4.602-4.732 2.786 4.246-.278c-1.37.7-2.825 1.395-4.365 2.071v.003a7.6 7.6 0 0 0 4.612 3.51c.268-2.13.721-3.725 1.138-4.84l.558 4.396 1.705-4.95 4.831.567z"/><path fill="#000" d="m54.532 13.207-.087-.023a7.7 7.7 0 0 1-2.9-1.486 7.7 7.7 0 0 1-1.758-2.06l-.01-.017-.003-.073.048-.025a82 82 0 0 0 4.021-1.897l-4.193.275 4.956-2.917L52.487.158l4.162 3.288L60.703.502l-1.635 4.774L62.96 8.39l-5.04-.59-1.794 5.208-.56-4.407c-.47 1.337-.814 2.855-1.023 4.518zm-4.567-3.575a7.5 7.5 0 0 0 1.678 1.945A7.5 7.5 0 0 0 54.4 13.01c.228-1.767.608-3.37 1.13-4.767l.111-.297.556 4.377 1.617-4.693 4.622.543-3.551-2.842L60.395.92l-3.75 2.723L52.882.67l1.924 4.378-4.51 2.655 4.295-.282-.337.172a82 82 0 0 1-4.29 2.039m4.166 15.019q-1.178.357-2.38.594-.665.143-1.336.24-.18.029-.358.052c-3.091.422-6.277.22-9.333-.393-1.452-.291-2.921-.596-4.334-1.04a17 17 0 0 1-2.71-1.131l.605-.445c.93.455 1.89.835 2.898 1.115a49 49 0 0 0 2.694.665c.436.091.868.177 1.306.252h.003a32.4 32.4 0 0 0 4.914.52c2.667.067 5.299-.316 7.845-1.068q.007.031.017.063.072.248.145.49v.004z"/><path fill="#FFD200" d="M42.12 23.195a1.368 1.368 0 1 1-2.732.136 1.368 1.368 0 0 1 2.732-.136"/><path fill="#000" d="M40.752 24.709c-.359 0-.7-.132-.968-.374a1.44 1.44 0 0 1-.474-1 1.44 1.44 0 0 1 .372-1.042c.26-.287.614-.455 1-.474a1.45 1.45 0 0 1 1.516 1.371 1.447 1.447 0 0 1-1.446 1.519m.003-2.736a1.287 1.287 0 0 0-1.289 1.354c.017.344.167.66.423.892a1.291 1.291 0 0 0 2.153-1.02 1.29 1.29 0 0 0-1.287-1.226"/><path fill="#FFD200" d="M52.655 26.465a1.368 1.368 0 1 1-2.732.137 1.368 1.368 0 0 1 2.732-.137"/><path fill="#000" d="M51.289 27.98a1.45 1.45 0 0 1-1.444-1.375 1.45 1.45 0 0 1 1.372-1.516 1.45 1.45 0 0 1 1.516 1.372 1.447 1.447 0 0 1-1.444 1.518m.001-2.736a1.29 1.29 0 0 0-1.289 1.354c.036.71.647 1.26 1.352 1.224a1.29 1.29 0 0 0 1.224-1.353 1.29 1.29 0 0 0-1.287-1.225m6.896 30.21c-3.016.107-6.04.124-9.054-.036-2.91-.155-5.804-.499-8.65-1.112a43 43 0 0 1-1.366-.316c-3.141-.783-6.164-1.932-9.097-3.296a53.2 53.2 0 0 1-9.155-5.47q-.42-.315-.83-.64-.005 0-.004-.003a31 31 0 0 1-2.234-1.957c-.805-.786-1.555-1.62-2.3-2.463l.082-.054q.232-.162.468-.324c.832.934 1.674 1.865 2.59 2.715a35 35 0 0 0 4.297 3.382 57 57 0 0 0 5.636 3.346l.003.003q.305.163.614.317c3.621 1.82 7.446 3.238 11.407 4.103 3.437.747 6.938 1.09 10.452 1.192h.004q.883.03 1.763.036c.004.003.004 0 .004 0a116 116 0 0 0 5.14-.08c.012.04.027.075.04.115q.093.276.19.542"/><path fill="#FFD200" d="M30.854 48.14a1.368 1.368 0 1 1-2.732.137 1.368 1.368 0 0 1 2.732-.136"/><path fill="#000" d="M29.487 49.655a1.448 1.448 0 0 1-1.071-2.416 1.44 1.44 0 0 1 1-.474 1.45 1.45 0 0 1 1.516 1.372 1.447 1.447 0 0 1-1.445 1.518m.002-2.736a1.3 1.3 0 0 0-.957.425 1.292 1.292 0 0 0 1.02 2.153 1.29 1.29 0 0 0 1.224-1.352 1.29 1.29 0 0 0-1.287-1.226"/><path fill="#FFD200" d="M40.903 55.223a1.368 1.368 0 1 1-2.733.136 1.368 1.368 0 0 1 2.733-.136"/><path fill="#000" d="M39.536 56.737a1.447 1.447 0 0 1-1.443-1.373 1.447 1.447 0 1 1 1.443 1.374m.001-2.735-.065.001c-.71.036-1.26.642-1.224 1.352s.643 1.258 1.353 1.224a1.29 1.29 0 0 0 1.223-1.352 1.29 1.29 0 0 0-1.287-1.225"/><path fill="#FFD200" d="M53.318 53.747a1.368 1.368 0 1 1-2.733.137 1.368 1.368 0 0 1 2.733-.137"/><path fill="#000" d="M51.95 55.261c-.359 0-.7-.131-.968-.373a1.447 1.447 0 0 1 .898-2.516 1.45 1.45 0 0 1 1.516 1.371 1.447 1.447 0 0 1-1.446 1.518m.002-2.735a1.29 1.29 0 1 0-.005 2.58 1.29 1.29 0 0 0 .005-2.58"/><path fill="#FFD200" d="M21.044 45.837a1.368 1.368 0 1 1-2.732.136 1.368 1.368 0 0 1 2.732-.136"/><path fill="#000" d="M19.677 47.35a1.447 1.447 0 0 1-1.443-1.373 1.447 1.447 0 1 1 1.443 1.374m.002-2.735a1.287 1.287 0 0 0-1.29 1.354 1.29 1.29 0 0 0 2.577-.128 1.29 1.29 0 0 0-1.287-1.226m36.411 3.801q.086.358.18.723c-1.455-.535-2.848-1.194-4.208-1.929a55 55 0 0 1-3.983-2.364 43 43 0 0 1-1.712-1.158 52 52 0 0 1-7.55-6.436c-3.419-3.536-6.39-7.48-9.312-11.431q.272-.173.544-.352l.016-.01c1.449 1.956 2.906 3.906 4.435 5.802 1.736 2.146 3.51 4.267 5.472 6.211a54.4 54.4 0 0 0 6.132 5.24c2.235 1.643 4.643 3.08 7.107 4.35q1.276.652 2.602 1.171.13.053.26.1.294.116.589.225a1.4 1.4 0 0 1-.572-.142"/><path fill="#FFD200" d="M48.087 44.942a1.368 1.368 0 1 1-2.732.136 1.368 1.368 0 0 1 2.732-.136"/><path fill="#000" d="M46.72 46.456c-.36 0-.7-.132-.969-.374a1.447 1.447 0 0 1 1.94-2.144 1.447 1.447 0 0 1-.972 2.518m.003-2.736-.066.002a1.291 1.291 0 0 0-.801 2.244 1.288 1.288 0 0 0 2.153-1.02 1.28 1.28 0 0 0-.422-.892 1.28 1.28 0 0 0-.864-.334"/><path fill="#FFD200" d="M58.06 47.122a1.366 1.366 0 0 1-1.295 1.435q-.05.004-.1.002h-.003a1.4 1.4 0 0 1-.572-.142q-.15-.073-.277-.183a1.36 1.36 0 0 1-.181-1.896 1.365 1.365 0 0 1 2.43.785"/><path fill="#000" d="m56.694 48.638-.033-.001a1.5 1.5 0 0 1-.606-.15 1.4 1.4 0 0 1-.293-.194 1.44 1.44 0 0 1-.191-2.005 1.443 1.443 0 0 1 2.568.83c.02.387-.113.758-.371 1.044a1.43 1.43 0 0 1-1.074.476m.003-2.735a1.28 1.28 0 0 0-1.004.483 1.284 1.284 0 0 0 .17 1.788q.12.105.261.173.256.125.54.134.053.002.097-.002a1.284 1.284 0 0 0 1.221-1.353 1.29 1.29 0 0 0-1.285-1.223M37.09 44.715l-.026.004c-2.738.248-5.435-.94-7.308-2.914a10 10 0 0 1-1.776-2.573c-.717-1.515-.956-3.218-.029-4.669.863-1.341 2.136-1.087 3.341-.355 1.063.647 2.075 1.669 2.698 2.297.542.542 1.116 1.04 1.797 1.396 1.097.58 2.358.67 3.469 1.19.22.103.46.233.698.397.692.462 1.383 1.134 1.575 1.851.564 2.147-2.9 3.234-4.44 3.376"/><path fill="#000" d="M36.354 44.828c-2.424 0-4.863-1.08-6.655-2.97a10.2 10.2 0 0 1-1.79-2.593c-.593-1.253-1.079-3.094-.024-4.744.76-1.18 1.92-1.308 3.447-.38 1.077.655 2.101 1.69 2.713 2.31.444.443 1.048 1 1.778 1.381.576.305 1.211.476 1.826.642.547.148 1.113.3 1.64.547q.38.178.709.403c.401.268 1.364.99 1.606 1.895a1.77 1.77 0 0 1-.28 1.522c-.85 1.214-3.038 1.84-4.222 1.951l-.018.003a8 8 0 0 1-.73.033m.703-.187.026.075-.01-.077.01-.002c1.24-.114 3.336-.775 4.113-1.885.3-.43.387-.899.257-1.393-.228-.852-1.155-1.547-1.543-1.806a5 5 0 0 0-.687-.39c-.515-.241-1.074-.392-1.615-.538-.622-.168-1.266-.342-1.857-.654-.749-.391-1.364-.96-1.817-1.41-.607-.614-1.623-1.641-2.683-2.286-1.461-.888-2.52-.78-3.234.33-1.017 1.59-.543 3.376.034 4.594a10 10 0 0 0 1.762 2.552c1.94 2.046 4.647 3.125 7.244 2.89"/><path fill="#FF2A2A" d="m37.09 44.715-.026.004c-2.738.248-5.435-.94-7.308-2.914a10 10 0 0 1-1.776-2.573c1.679-.722 3.89-.56 5.83.607 1.95 1.17 3.133 3.047 3.28 4.876"/><path fill="#000" d="M36.354 44.828c-2.424 0-4.863-1.08-6.655-2.97a10.1 10.1 0 0 1-1.79-2.593l-.034-.073.074-.032c1.757-.756 4.019-.521 5.901.611 1.894 1.136 3.165 3.028 3.317 4.938l.006.067-.09.019a8 8 0 0 1-.73.033m-8.268-5.556a10 10 0 0 0 1.727 2.479c1.926 2.032 4.61 3.111 7.192 2.894-.176-1.834-1.41-3.645-3.235-4.74-1.814-1.091-3.983-1.33-5.684-.633m9.478-12.12-.454.841 3.763 2.03.453-.842z"/><path fill="#000" d="m40.901 30.129-3.9-2.104.528-.978 3.9 2.103zm-3.688-2.167 3.624 1.955.38-.703-3.625-1.955z"/><path fill="#000" d="M55.302 36.72c-2.65 4.914-7.814 7.296-11.654 5.43a6.3 6.3 0 0 1-.945-.568l-.002-.002a6.6 6.6 0 0 1-1.708-1.869c-1.677-2.732-1.663-6.833.33-10.529z"/><path fill="#000" d="M46.494 42.87a6.54 6.54 0 0 1-3.116-.772 7 7 0 0 1-.72-.454 6.6 6.6 0 0 1-1.73-1.892c-1.745-2.84-1.616-7.004.327-10.607l.037-.069 14.115 7.612-.037.07c-2.056 3.813-5.58 6.113-8.876 6.113m-5.139-13.582c-1.881 3.539-2 7.606-.295 10.382a6.5 6.5 0 0 0 1.688 1.847q.345.25.704.444.11.058.221.113c1.848.898 4.052.837 6.215-.167 2.153-1 4.036-2.83 5.307-5.155z"/><path fill="#fff" d="M49.988 33.854c-2.468 2.574-5.037 5.025-7.612 7.47a6.6 6.6 0 0 1-1.383-1.613c2.342-2.318 4.768-4.536 7.077-6.891z"/><path fill="#000" d="m42.38 41.428-.054-.044a6.6 6.6 0 0 1-1.4-1.632l-.032-.053.044-.044c.986-.975 2.003-1.949 2.986-2.89 1.354-1.296 2.753-2.636 4.09-4l.041-.041 2.06 1.11-.07.074c-2.425 2.527-4.883 4.88-7.615 7.472zm-1.287-1.705c.355.57.785 1.072 1.28 1.496 2.684-2.547 5.104-4.864 7.487-7.345l-1.775-.957c-1.326 1.35-2.712 2.677-4.052 3.96-.969.927-1.97 1.886-2.94 2.846"/><path fill="#fff" d="M51.25 34.535c-2.49 2.59-5.083 5.054-7.602 7.613a6.3 6.3 0 0 1-.945-.568c2.034-1.93 4.068-3.868 6.048-5.867q.813-.822 1.61-1.657z"/><path fill="#000" d="m43.664 42.244-.05-.025a6.5 6.5 0 0 1-.956-.575l-.077-.055.069-.065c2.173-2.064 4.129-3.93 6.046-5.865.59-.6 1.117-1.142 1.61-1.657l.04-.043 1.032.556-.071.075a239 239 0 0 1-4.375 4.397 315 315 0 0 0-3.227 3.217zm-.838-.672q.306.216.626.388l.18.093a324 324 0 0 1 3.19-3.178 240 240 0 0 0 4.3-4.32l-.745-.402c-.48.503-.995 1.032-1.57 1.615-1.899 1.917-3.834 3.765-5.981 5.804M37.56 27.153c-2.704 5.014-8.024 7.391-11.886 5.309a6 6 0 0 1-.347-.204 6 6 0 0 1-1.16-.936 6.9 6.9 0 0 1-1.237-1.757c-1.344-2.71-1.205-6.505.653-9.95z"/><path fill="#000" d="M28.717 33.292a6.4 6.4 0 0 1-3.08-.76 6 6 0 0 1-.352-.207 6 6 0 0 1-1.175-.949 7 7 0 0 1-1.25-1.776c-1.403-2.831-1.153-6.672.654-10.022l.037-.07 14.116 7.613-.037.069c-2.052 3.803-5.616 6.101-8.913 6.101M23.615 19.72c-1.75 3.29-1.987 7.043-.614 9.81a6.8 6.8 0 0 0 1.517 2.021c.26.237.547.452.85.641.128.08.237.144.343.201 3.8 2.049 9.053-.288 11.743-5.209z"/><path fill="#fff" d="M31.66 23.97c-2.43 2.533-4.957 4.948-7.494 7.352a6.9 6.9 0 0 1-1.236-1.757c2.26-2.223 4.59-4.363 6.812-6.629z"/><path fill="#000" d="m24.165 31.431-.054-.055a7 7 0 0 1-1.25-1.776l-.026-.05.04-.04a284 284 0 0 1 2.7-2.609c1.36-1.302 2.767-2.65 4.111-4.02l.042-.042 2.06 1.111-.072.074c-2.453 2.558-5.048 5.036-7.496 7.355zm-1.14-1.85a6.8 6.8 0 0 0 1.144 1.631c2.406-2.28 4.951-4.712 7.363-7.222l-1.775-.957c-1.334 1.357-2.727 2.691-4.074 3.981-.874.838-1.778 1.703-2.657 2.567"/><path fill="#fff" d="M32.922 24.65c-2.488 2.59-5.078 5.051-7.595 7.608a6 6 0 0 1-.86-.649c2.003-1.901 4.004-3.811 5.956-5.78a143 143 0 0 0 1.61-1.658z"/><path fill="#000" d="m25.338 32.357-.053-.033a6 6 0 0 1-.871-.656l-.063-.057.062-.058c1.922-1.824 3.966-3.773 5.954-5.779.586-.594 1.113-1.136 1.61-1.656l.041-.043 1.032.556-.071.074c-1.437 1.496-2.933 2.973-4.38 4.402a326 326 0 0 0-3.216 3.206zm-.757-.75q.343.302.734.551c1.05-1.065 2.13-2.131 3.174-3.163a242 242 0 0 0 4.306-4.324l-.746-.402c-.485.508-1 1.037-1.57 1.615-1.97 1.986-3.992 3.915-5.898 5.724"/><path fill="#FFD200" d="M35.558 32.972c-.553.74-.352 1.826.449 2.424s1.898.482 2.451-.258.352-1.826-.449-2.424-1.898-.482-2.451.258"/><path fill="#000" d="M37.138 35.856c-.404 0-.82-.13-1.178-.398a1.95 1.95 0 0 1-.762-1.206 1.68 1.68 0 0 1 .297-1.326 1.68 1.68 0 0 1 1.188-.662c.48-.051.97.087 1.373.388.834.622 1.043 1.759.465 2.533-.33.441-.846.67-1.383.67m-.259-3.446q-.09 0-.18.01c-.441.046-.824.259-1.078.6s-.35.767-.27 1.203c.082.439.331.833.703 1.11.765.572 1.816.463 2.342-.242s.332-1.743-.433-2.314c-.322-.24-.7-.367-1.084-.367"/><path fill="#fff" d="M37.241 32.965c.392.612-.559 1.222-.951.609-.392-.612.559-1.222.951-.609"/><path fill="#009CF7" d="m34.594 0-1.582.45 2.304 8.123 1.581-.448zm-19.33 12.143-.956 1.336 6.32 4.523.957-1.337zm8.797-8.191-1.423.823 4.54 7.848 1.423-.823z"/></svg>