<svg xmlns="http://www.w3.org/2000/svg" width="81" height="80" fill="none" viewBox="0 0 81 80"><g clip-path="url(#a)"><path fill="#fff" d="M55.484 2.274S55.127-.435 57.735.442c2.608.876 1.758 3.356.764 2.508-.994-.849.871-3.728 2.866-2.446s1.55 3.769.134 3.952c-1.415.184.857-2.895 2.64-.994s-2.11 5.37-3.702 4.095-.346-3.333.036-2.079S59.825 7.962 57 7.913s-1.538-4.392-.551-3.128-.652 2.692-2.644 1.202.28-4.569 1.678-3.713M13.672 72.295s-.357-2.708 2.25-1.832 1.758 3.357.764 2.508.872-3.727 2.867-2.445c1.995 1.281 1.55 3.768.134 3.952s.857-2.896 2.64-.994-2.11 5.369-3.702 4.094-.346-3.332.035-2.078c.382 1.254-.647 2.483-3.471 2.435s-1.539-4.392-.551-3.128-.652 2.691-2.644 1.202c-1.992-1.49.28-4.57 1.678-3.714"/><path fill="#E8A900" d="m76.233 16.275-12.159-.206s-.419-6.588.7-5.867c1.117.72 1.816 4.117 1.816 4.117s0-7.514 1.397-6.382 2.097 6.073 2.097 6.073-.14-7 1.257-5.867c1.398 1.132 2.236 5.661 2.236 5.661s1.538-6.69 2.237-4.632c.698 2.059.419 7.103.419 7.103"/><path fill="#241726" d="M65.487 15.42a.18.18 0 0 1-.18-.18c0-.86-.571-3.858-.577-3.888a.18.18 0 1 1 .355-.068c.024.125.583 3.062.583 3.956 0 .1-.08.18-.18.18m2.694-.136a.18.18 0 0 1-.163-.102c-.563-1.162-.104-4.368-.084-4.504a.181.181 0 0 1 .358.052c-.005.033-.464 3.232.051 4.294a.18.18 0 0 1-.162.26m3.138-.273a.18.18 0 0 1-.174-.23c.493-1.746-.033-4.56-.039-4.588a.18.18 0 0 1 .356-.068c.022.119.547 2.928.03 4.755a.18.18 0 0 1-.174.131m3.478.477a.18.18 0 0 1-.177-.143c-.105-.489.435-3.327.545-3.891a.18.18 0 1 1 .355.069c-.248 1.278-.615 3.425-.546 3.747a.18.18 0 0 1-.177.218"/><path fill="#E8A900" d="m14.84 66.122-12.16-.206s-.42-6.587.699-5.867 1.817 4.118 1.817 4.118 0-7.515 1.397-6.382c1.398 1.132 2.096 6.073 2.096 6.073s-.14-7 1.258-5.867c1.398 1.132 2.236 5.661 2.236 5.661s1.537-6.69 2.236-4.632.42 7.102.42 7.102"/><path fill="#241726" d="M4.094 65.268a.18.18 0 0 1-.18-.181c0-.86-.572-3.857-.578-3.887a.18.18 0 1 1 .356-.068c.024.125.583 3.062.583 3.955 0 .1-.081.18-.181.18m2.695-.135a.18.18 0 0 1-.163-.102c-.564-1.162-.104-4.368-.084-4.504a.183.183 0 0 1 .205-.153.18.18 0 0 1 .152.206c-.004.032-.463 3.231.052 4.293a.18.18 0 0 1-.162.26m3.137-.272a.18.18 0 0 1-.174-.23c.494-1.747-.032-4.56-.038-4.589a.181.181 0 0 1 .355-.068c.023.119.548 2.928.03 4.755a.18.18 0 0 1-.173.131m3.478.478a.18.18 0 0 1-.177-.143c-.105-.489.435-3.327.545-3.891a.18.18 0 1 1 .355.069c-.248 1.277-.616 3.424-.547 3.746a.18.18 0 0 1-.177.219"/><path fill="#52AFA6" d="M14.415 21.698s6.793-.761 7.174 4.672c0 0-5.543 4.456-7.174-4.672"/><path fill="#241726" d="m21.67 26.21-2.064-1.052c-.107-.465-1.011-1.616-1.792-2.545a.18.18 0 1 0-.277.233c.614.73 1.266 1.579 1.56 2.053l-3.404-1.733a.18.18 0 1 0-.164.322l3.336 1.699c-.564.036-1.537.043-2.435.025-.102.008-.183.077-.185.177s.078.182.177.184c.26.006.628.011 1.022.011.787 0 1.667-.023 1.978-.114l2.085 1.062a.18.18 0 0 0 .243-.08.18.18 0 0 0-.08-.243"/><path fill="#52AFA6" d="M25.897 77.419s3.94-5.585 8.257-2.263c0 0-.346 7.102-8.257 2.263"/><path fill="#241726" d="M34.322 75.09a.18.18 0 0 0-.234-.103l-2.156.847c-.42-.23-1.881-.317-3.094-.35-.103.004-.183.077-.186.177-.002.1.077.183.177.186.95.025 2.021.1 2.572.195l-3.557 1.397a.18.18 0 0 0 .132.337l3.483-1.368a34 34 0 0 1-1.596 1.837.18.18 0 1 0 .265.245c.526-.569 1.706-1.87 1.916-2.312l2.176-.854a.18.18 0 0 0 .102-.234"/><path fill="#52AFA6" d="M59.203 58.585s-6.793-.76-7.173 4.673c0 0 5.543 4.456 7.173-4.673"/><path fill="#241726" d="M58.169 60.133a.18.18 0 0 0-.243-.079l-3.404 1.733c.294-.474.945-1.323 1.56-2.053a.181.181 0 0 0-.278-.233c-.78.929-1.685 2.08-1.792 2.545l-2.064 1.051a.18.18 0 1 0 .164.322l2.085-1.06c.31.09 1.191.113 1.977.113.394 0 .763-.006 1.022-.011a.18.18 0 0 0 .177-.184c-.002-.1-.08-.172-.184-.178-.9.018-1.874.011-2.437-.024l3.338-1.699a.18.18 0 0 0 .079-.243"/><path fill="#9C3B2A" d="m29.304 2.836.744 11.31-10.767-6.28-1.547 4.622 5.37 2.708-5.03 2.598 1.207 2.286 5.496-2.696 5.592 1.64 3.806 57.864h7.716l.724-74.74z"/><path fill="#52AFA6" d="M49.558 4.822s-6.793-.761-7.173 4.673c0 0 5.543 4.455 7.173-4.673"/><path fill="#241726" d="M48.524 6.37a.18.18 0 0 0-.244-.08l-3.403 1.733c.293-.474.945-1.323 1.559-2.053a.181.181 0 0 0-.277-.233c-.781.929-1.686 2.08-1.792 2.546l-2.064 1.05a.18.18 0 1 0 .164.323l2.085-1.062c.311.09 1.191.114 1.977.114.394 0 .763-.006 1.022-.011a.18.18 0 0 0 .177-.184.19.19 0 0 0-.184-.178c-.9.018-1.873.01-2.436-.024l3.336-1.699a.18.18 0 0 0 .08-.242"/><path fill="#7D9328" d="M49.849 43.14c-2.19.38 3.375 12.532 10.367 10.844s6.993-7.233 6.27-7.956-4.94-2.598-6.628-3.32c-1.688-.724 10.792-8.738 4.94-19.825-4.028-7.63-12.802-13.197-32.793-4.822-10.417 4.364-14.717 11.951-9.814 15.937 1.43 1.163 3.699 1.252 6.19 1.598-3.458 3.01-5.318 7.57-3.621 12.239-3.51 3.184-4.551 7.69-.098 13.105.95 1.155 1.988 2.02 3.077 2.65l-.003.002c-6.14 9.13 6.769 10.252 14.14 7.735l.015.257c.674 10.693 14.599 8.764 18.216 1.29 3.616-7.474-4.713-8.04-4.713-8.04s6.16 7.016-4.581 8.679c-3.346.518-4.388-1.99-4.654-4.324 5.15-3.002 7.728-5.358 5.377-9.419-2.458-4.245-3.673-3.314-3.838-3.155.206-.212 2.414-2.57 2.873-6.247.483-3.858-5.87-4.495-5.87-4.495s7.984-6.816 6.353-11.418c-2.642-7.449-19.643-1.378-19.643-1.378 1.628-4.038 23.26-9.712 26.394-5.131 3.135 4.58-3.147 14.111-3.147 14.111s-2.377.661-4.81 1.083"/><path fill="#241726" d="m55.654 48.685-.078-.007c-.697-.123-.812-2.005-.83-2.578a.18.18 0 0 1 .174-.187c.098 0 .183.074.187.174.034 1.019.26 2.187.532 2.234.035.006.388.01 1.105-1.782a.181.181 0 0 1 .335.135c-.553 1.382-.996 2.01-1.425 2.01m7.321.69c-.287 0-.664-.407-1.417-1.997a.18.18 0 1 1 .326-.155c.695 1.465.995 1.731 1.079 1.78.115-.201.082-1.193-.077-2.194a.181.181 0 0 1 .357-.057c.177 1.11.292 2.464-.172 2.608a.3.3 0 0 1-.096.015"/><path fill="#E8A900" d="M49.979 46.433s3.915 4.6 5.772 4.658c1.857.057 3.489-2.625 4.272-2.418s2.331 2.372 3.57 1.856 3.154-2.926 3.154-2.926-.079 6.537-6.724 7.981c-6.644 1.445-10.044-9.15-10.044-9.15"/><path fill="#241726" d="M59.569 51.619h-.003a.18.18 0 0 1-.178-.184c.007-.58-.109-1.255-.293-1.336-.055-.023-.16.032-.282.148a.181.181 0 0 1-.25-.262q.369-.35.677-.217c.49.214.514 1.334.51 1.672a.18.18 0 0 1-.181.179m.825 0a.18.18 0 0 1-.18-.18c-.008-1.135.146-1.722.486-1.848.287-.108.526.16.552.19a.18.18 0 0 1-.275.236c-.038-.044-.117-.102-.15-.087-.011.004-.261.115-.252 1.507.001.1-.08.181-.18.182"/><path fill="#DF4F3E" d="M60.161 52.152s.953 3.596 3.107 4.065c4.183.91 4.705-3.967 4.705-3.967s1.661.458.113 3.14c0 0 1.52-.905 1.947-1.605 0 0 1.23 2.288-3.8 3.762-6.105 1.79-7.31-4.901-6.072-5.395"/><path fill="#E8A900" d="M58.6 30.683s2.871-7.263-10.922-6.63-16.566 6.449-17.65 10.005c0 0 3.848-3.858 16.868-5.606 8.824-1.185 11.704 2.23 11.704 2.23M25.808 48.644s19.922-2.923 23.991-8.62c0 0-4.472 6.333-10.67 9.283s-13.321-.663-13.321-.663M24.3 60.277s6.12.635 12.6-.602c10.729-2.05 12.598-5.907 12.598-5.907s-.784 2.893-3.195 4.038c-2.412 1.145-7.31 5.35-17.24 6.268 0 0-2.592-.12-4.762-3.797m18.023 13.502s2.081 4.275 9.194 3.793 9.191-9.278 8.347-10.845c0 0 5.606 5.424-4.762 11.391-10.467 6.024-12.779-4.34-12.779-4.34"/><path fill="#241726" d="M40.034 72.09a.18.18 0 0 1-.048-.355c.057-.015 5.706-1.583 8.054-4.049a.181.181 0 0 1 .263.25c-2.419 2.539-7.986 4.083-8.222 4.148a.2.2 0 0 1-.048.007M56.528 29.36a.18.18 0 0 1-.166-.252l1.227-2.896a.181.181 0 0 1 .333.141l-1.227 2.896a.18.18 0 0 1-.167.11m-2.302-.727a.18.18 0 0 1-.175-.227l.938-3.555a.18.18 0 0 1 .35.092l-.938 3.556a.18.18 0 0 1-.175.134m-2.423-.302a.18.18 0 0 1-.175-.225l.97-3.817a.18.18 0 1 1 .35.09l-.97 3.815a.18.18 0 0 1-.175.137m-2.544.06-.021-.001a.18.18 0 0 1-.159-.2l.485-4.12a.18.18 0 0 1 .2-.158c.1.012.17.101.159.2l-.485 4.12a.18.18 0 0 1-.179.16m-2.666.363a.18.18 0 0 1-.18-.167l-.364-4.543a.18.18 0 1 1 .361-.029l.364 4.543a.18.18 0 0 1-.181.196m-2.787.243a.18.18 0 0 1-.176-.142l-.909-4.058a.18.18 0 1 1 .353-.08l.909 4.06a.18.18 0 0 1-.177.22m-1.666.185q-.484.083-.952.177a.18.18 0 0 0 .002-.12l-1.454-3.999a.18.18 0 1 0-.34.124l1.454 3.998c.009.025.028.041.046.059q-1.283.268-2.432.601L36.7 26.444a.18.18 0 0 0-.325.16l1.736 3.52q-1.147.347-2.158.734l-1.844-3.014a.181.181 0 0 0-.309.188l1.811 2.96a29 29 0 0 0-2.083.921v-.001l-1.431-1.765a.181.181 0 0 0-.282.227l1.382 1.705c-3.437 1.75-5.085 3.515-5.112 3.544a.18.18 0 1 0 .268.244c.032-.035 2.45-2.627 7.59-4.619.01-.004.022-.002.031-.009q.004-.002.007-.006a32.5 32.5 0 0 1 6.22-1.694.18.18 0 0 0-.06-.357m8.532 9.705a.18.18 0 0 0-.251.048c-1.461 2.154-2.987 4-4.571 5.547l-.93-.929a.18.18 0 1 0-.256.256l.926.925a25 25 0 0 1-2.612 2.174l-1.07-2.317a.181.181 0 0 0-.328.152l1.076 2.331c.008.018.023.028.036.041a20 20 0 0 1-2.462 1.457l-1.37-3.081a.181.181 0 0 0-.33.147l1.376 3.095q-1.463.691-2.974 1.082l-1.022-3.407a.18.18 0 1 0-.346.104L36.58 49.9c-.249.058-.497.116-.748.162-.885.163-1.736.236-2.55.247l-.43-2.925a.183.183 0 0 0-.205-.153.18.18 0 0 0-.153.206l.423 2.874a15.7 15.7 0 0 1-3.098-.344l.002-.009v-1.883a.18.18 0 1 0-.362 0v1.813c-2.86-.674-4.664-1.913-4.692-1.933a.18.18 0 1 0-.208.296c.04.029 3.516 2.423 8.52 2.423a15.6 15.6 0 0 0 3.717-.45c.006 0 .011.005.017.005a.2.2 0 0 0 .052-.008c.016-.004.028-.014.04-.021 3.17-.793 6.179-2.561 9.002-5.268a.2.2 0 0 0 .09-.046.2.2 0 0 0 .045-.084c1.624-1.578 3.186-3.461 4.68-5.663a.18.18 0 0 0-.049-.251M47.82 56.525a.18.18 0 0 0-.253-.032c-.03.023-1.006.771-2.631 1.78l-.801-1.157a.18.18 0 1 0-.297.206l.79 1.141a46 46 0 0 1-2.99 1.673l-.438-1.665a.181.181 0 0 0-.35.092l.449 1.704c.003.012.014.019.02.03-.925.463-1.926.923-2.984 1.352a.2.2 0 0 0 0-.075l-.449-2.062a.181.181 0 0 0-.353.077l.448 2.062a.18.18 0 0 0 .077.11 34 34 0 0 1-3.525 1.177l-.592-2.709a.18.18 0 1 0-.353.077l.596 2.725q-1.108.287-2.249.482l-.866-3.203a.18.18 0 0 0-.35.094l.857 3.167q-1.143.177-2.303.236c-.003-.008-.002-.017-.006-.025l-1.434-3.317a.18.18 0 0 0-.332.144l1.39 3.214q-.126.006-.254.01a.181.181 0 0 0 .004.362h.003c9.713-.18 19.052-7.344 19.145-7.416a.18.18 0 0 0 .032-.254m-2.759 22.393a.18.18 0 0 1-.17-.244l.898-2.42a.18.18 0 1 1 .34.126l-.898 2.42a.18.18 0 0 1-.17.118m3.408.986-.029-.002a.18.18 0 0 1-.15-.207l.359-2.242a.183.183 0 0 1 .207-.15.18.18 0 0 1 .15.207l-.359 2.242a.18.18 0 0 1-.178.152m2.6.09-.014-.001a.18.18 0 0 1-.166-.194l.18-2.242a.18.18 0 0 1 .36.029l-.18 2.241a.18.18 0 0 1-.18.167m3.587-1.524a.18.18 0 0 1-.133-.059l-1.076-1.165a.18.18 0 1 1 .265-.245l1.076 1.165a.18.18 0 0 1-.132.304m3.228-2.152a.18.18 0 0 1-.11-.038l-1.166-.896a.18.18 0 1 1 .22-.287l1.166.897a.18.18 0 0 1-.11.324m2.241-2.062a.2.2 0 0 1-.102-.032l-1.703-1.165a.181.181 0 0 1 .204-.3l1.703 1.166a.181.181 0 0 1-.102.33m1.256-3.048a.2.2 0 0 1-.078-.017l-1.703-.807a.18.18 0 1 1 .154-.327l1.704.807a.18.18 0 0 1-.078.344m-4.62-17.353a3.6 3.6 0 0 1-1.119-.187c-2.723-.893-2.974-2.968-2.983-3.056a.18.18 0 0 1 .36-.039c.008.08.244 1.934 2.736 2.75 1.56.512 2.618-.25 3.39-.807.49-.354.914-.66 1.235-.313.32.345 1.298 1.395 2.258 1.244.565-.087 1.061-.578 1.476-1.458a.18.18 0 1 1 .327.154c-.469.996-1.057 1.555-1.748 1.662-1.152.178-2.225-.976-2.577-1.356-.097-.104-.351.067-.758.36-.607.437-1.451 1.046-2.597 1.046m-3.206-36.711a.18.18 0 0 1-.154-.086q-.293-.474-.693-.548c-.436-.08-.836.225-.84.228a.18.18 0 0 1-.222-.285c.022-.017.528-.408 1.124-.3.372.067.688.308.94.715a.18.18 0 0 1-.155.276m1.447 1.43a.18.18 0 0 1-.154-.086q-.294-.474-.693-.547c-.437-.08-.836.225-.84.227a.181.181 0 0 1-.222-.285c.02-.016.527-.404 1.123-.3.372.068.688.308.94.715a.18.18 0 0 1-.154.276m1.148-1.554a.18.18 0 0 1-.154-.086q-.294-.475-.695-.548c-.438-.08-.833.225-.837.227a.18.18 0 1 1-.223-.284c.022-.017.53-.407 1.124-.3.372.067.688.308.94.715a.18.18 0 0 1-.154.276m1.429 1.575a.18.18 0 0 1-.155-.086q-.293-.474-.693-.547c-.437-.081-.836.225-.84.227a.18.18 0 0 1-.222-.285c.021-.016.527-.404 1.124-.3.372.068.688.308.939.715a.18.18 0 0 1-.154.276m1.305-1.019a.18.18 0 0 1-.155-.086q-.294-.475-.695-.549c-.44-.078-.833.226-.837.229a.18.18 0 1 1-.223-.285c.022-.017.528-.405 1.124-.3.372.067.688.307.94.715a.18.18 0 0 1-.154.276m-6.787.642a.18.18 0 0 1-.154-.086q-.294-.474-.693-.548c-.437-.08-.836.225-.84.228a.181.181 0 0 1-.222-.285c.021-.017.527-.405 1.123-.3.372.067.689.308.94.715a.18.18 0 0 1-.154.276m-28.808 8.87-.02-.001a.18.18 0 0 1-.16-.2c.003-.027.078-.661.57-1.013.307-.22.7-.278 1.168-.174a.18.18 0 0 1-.079.353c-.362-.08-.658-.043-.878.115-.363.259-.421.754-.422.759a.18.18 0 0 1-.18.16m2.035-.036-.02-.001a.18.18 0 0 1-.16-.2c.003-.026.078-.66.57-1.012.308-.22.7-.279 1.168-.174a.18.18 0 0 1-.08.353q-.543-.12-.875.114c-.361.256-.423.755-.424.76a.18.18 0 0 1-.18.16m-.309-1.908h-.02a.18.18 0 0 1-.16-.2c.003-.027.078-.661.57-1.013q.464-.33 1.168-.173a.18.18 0 0 1-.08.353q-.544-.121-.876.113c-.36.256-.422.755-.423.76a.18.18 0 0 1-.18.16m2.126.078h-.02a.18.18 0 0 1-.16-.2c.003-.027.078-.66.57-1.013q.464-.33 1.168-.173a.18.18 0 0 1-.08.353q-.545-.122-.878.115c-.362.259-.42.753-.42.758a.18.18 0 0 1-.18.16m.181-1.645-.02-.001a.18.18 0 0 1-.16-.2c.003-.026.078-.66.57-1.012q.464-.33 1.168-.174a.18.18 0 0 1-.079.353q-.544-.121-.876.114c-.36.256-.423.755-.423.76a.18.18 0 0 1-.18.16M23.04 28.88h-.02a.18.18 0 0 1-.16-.2c.002-.027.078-.662.57-1.013.308-.22.7-.277 1.167-.174a.18.18 0 0 1-.079.354c-.362-.082-.658-.043-.878.114-.362.259-.42.753-.421.758a.18.18 0 0 1-.18.161m16.233 4.367a.18.18 0 0 1-.145-.289c.016-.021.403-.53 1.006-.582.375-.036.744.116 1.094.443a.18.18 0 1 1-.247.264q-.406-.38-.813-.347c-.44.037-.748.436-.75.44a.18.18 0 0 1-.145.071m1.77 1.003a.18.18 0 0 1-.145-.289c.017-.022.403-.53 1.006-.583q.569-.048 1.094.444a.18.18 0 1 1-.247.263c-.27-.253-.544-.373-.812-.347-.441.037-.748.435-.751.44a.18.18 0 0 1-.145.071m.702-1.801a.18.18 0 0 1-.145-.289c.016-.021.403-.53 1.006-.582q.57-.047 1.094.444a.18.18 0 1 1-.247.263c-.27-.253-.544-.374-.813-.347-.44.037-.748.436-.75.44a.18.18 0 0 1-.145.071m1.791 1.147a.18.18 0 0 1-.145-.289c.016-.021.403-.53 1.006-.582.374-.033.745.115 1.094.444a.18.18 0 1 1-.247.263c-.27-.253-.544-.373-.813-.347-.44.037-.748.436-.75.44a.18.18 0 0 1-.145.071m.992-1.325a.18.18 0 0 1-.145-.29c.017-.021.404-.53 1.006-.582.377-.035.745.117 1.094.443a.18.18 0 1 1-.247.264q-.408-.382-.815-.347c-.444.04-.745.436-.748.44a.18.18 0 0 1-.145.072m-6.382 2.396a.18.18 0 0 1-.145-.289c.017-.022.404-.53 1.006-.583q.57-.046 1.094.444a.18.18 0 1 1-.247.264c-.27-.254-.544-.373-.812-.348-.441.037-.748.436-.751.44a.18.18 0 0 1-.145.072M24.621 52.977a.18.18 0 0 1-.145-.289c.017-.021.403-.53 1.006-.582.375-.032.745.115 1.094.444a.18.18 0 1 1-.247.263c-.27-.253-.543-.373-.812-.347-.441.037-.748.436-.751.44a.18.18 0 0 1-.145.071m1.771 1.003a.18.18 0 0 1-.145-.289c.016-.022.403-.53 1.006-.583q.57-.047 1.094.443a.18.18 0 1 1-.248.264c-.27-.253-.543-.374-.812-.347-.44.037-.748.435-.75.44a.18.18 0 0 1-.145.071m.701-1.8a.181.181 0 0 1-.145-.29c.017-.022.404-.53 1.007-.583.376-.033.744.117 1.093.444a.18.18 0 0 1-.247.264q-.406-.382-.815-.347c-.443.038-.745.435-.748.439a.18.18 0 0 1-.145.072m1.791 1.147a.181.181 0 0 1-.145-.29c.017-.02.404-.529 1.007-.582.375-.03.744.117 1.093.444a.18.18 0 1 1-.247.264q-.407-.382-.815-.347c-.443.039-.745.435-.748.439a.18.18 0 0 1-.145.072M29.877 52a.18.18 0 0 1-.145-.289c.016-.022.403-.53 1.006-.583q.57-.047 1.094.444a.18.18 0 1 1-.248.263c-.27-.252-.542-.373-.812-.347-.44.037-.748.436-.75.44a.18.18 0 0 1-.145.072m-6.382 2.396a.18.18 0 0 1-.145-.29c.016-.021.403-.53 1.006-.582.376-.035.745.116 1.094.443a.18.18 0 1 1-.247.264q-.407-.38-.816-.347c-.443.04-.744.435-.747.44a.18.18 0 0 1-.145.072m20.414 12.152a.18.18 0 0 1-.174-.23c.008-.027.189-.64.734-.903.34-.165.737-.156 1.18.027a.18.18 0 1 1-.138.334c-.343-.141-.641-.152-.885-.035-.4.194-.542.671-.543.676a.18.18 0 0 1-.174.13m2.011.309a.18.18 0 0 1-.174-.23c.007-.027.189-.64.734-.903.34-.165.737-.156 1.18.027a.18.18 0 1 1-.138.334c-.343-.14-.641-.152-.885-.035-.401.194-.542.671-.544.676a.18.18 0 0 1-.173.131m.017-1.932a.18.18 0 0 1-.174-.23c.007-.027.188-.64.733-.903.34-.164.737-.156 1.18.027a.18.18 0 1 1-.137.334c-.344-.141-.642-.153-.885-.035-.401.194-.542.671-.544.676a.18.18 0 0 1-.173.13m2.081.437a.18.18 0 0 1-.174-.23c.008-.026.189-.639.734-.902q.512-.247 1.18.026a.18.18 0 1 1-.138.334q-.516-.21-.885-.035c-.4.194-.542.672-.543.676a.18.18 0 0 1-.174.132m.457-1.591a.18.18 0 0 1-.174-.23c.008-.027.19-.64.734-.904.34-.164.737-.156 1.18.027a.18.18 0 1 1-.138.334c-.343-.141-.641-.152-.885-.035-.4.194-.542.672-.543.676a.18.18 0 0 1-.174.131m-5.115 4.504a.18.18 0 0 1-.174-.23c.007-.026.188-.638.733-.902.34-.165.737-.156 1.18.027a.18.18 0 1 1-.137.334q-.517-.21-.883-.036c-.399.191-.545.673-.546.677a.18.18 0 0 1-.174.13M30.72 17.995a.18.18 0 0 1-.069-.348c.511-.21 1.014-.956 1.346-1.995.515-1.608.662-4.208-.616-6.24-2.022-3.216-.564-6.03-.549-6.058a.18.18 0 0 1 .32.17c-.015.026-1.371 2.663.535 5.696 1.344 2.137 1.193 4.86.655 6.543-.37 1.156-.936 1.964-1.553 2.218a.2.2 0 0 1-.069.014"/><path fill="#241726" d="M33.344 16.91a.181.181 0 0 1-.11-.325c.021-.016 2.087-1.618 1.828-4.996-.113-1.462-.794-2.738-1.453-3.973-.883-1.655-1.718-3.218-.784-4.811a.18.18 0 1 1 .312.183c-.831 1.419-.08 2.827.791 4.458.645 1.208 1.376 2.577 1.494 4.116.276 3.583-1.879 5.243-1.97 5.312a.2.2 0 0 1-.108.036m4.158-1.266a.18.18 0 0 1-.176-.222c.317-1.347.263-5.39-1.962-8.626-1.024-1.49-.678-3.743-.663-3.838a.18.18 0 1 1 .357.057c-.003.022-.337 2.207.604 3.576 2.293 3.335 2.344 7.518 2.016 8.914a.18.18 0 0 1-.176.14m4.883-10.308a.2.2 0 0 1-.076-.017c-1.439-.67-1.547-2.691-1.551-2.777a.18.18 0 0 1 .172-.189.18.18 0 0 1 .19.172c0 .02.102 1.888 1.342 2.467a.18.18 0 0 1-.077.344m-.182 2.26a.2.2 0 0 1-.059-.01c-2.682-.924-3.777-4.839-3.822-5.005a.181.181 0 0 1 .348-.095c.011.039 1.092 3.897 3.592 4.759a.18.18 0 0 1-.059.351m-1.717 6.962a.182.182 0 0 1-.165-.256c.438-.964-.107-5.006-2.226-7.213-2.22-2.312-1.52-4.605-1.489-4.701a.18.18 0 0 1 .345.11c-.028.088-.66 2.19 1.405 4.34 2.256 2.35 2.775 6.557 2.294 7.614a.18.18 0 0 1-.164.106m-15.01-2.169-.037-.004c-2.705-.56-3.108-2.237-3.123-2.308a.181.181 0 0 1 .352-.08c.015.063.382 1.524 2.844 2.034a.18.18 0 0 1-.036.357"/><path fill="#241726" d="M29.368 14.343c-1.498 0-5.046-.212-7.001-2.095C19.94 9.91 19.87 9.044 19.87 8.953a.18.18 0 0 1 .361-.006c.003.029.117.856 2.386 3.04 2.355 2.268 7.37 1.981 7.42 1.978.092-.012.185.069.191.169a.18.18 0 0 1-.169.192 12 12 0 0 1-.69.017"/><path fill="#241726" d="M29.094 18.356h-.018a.18.18 0 0 1-.162-.198c.006-.07.113-1.666-2.577-2.339-2.653-.663-7.247-2.545-7.64-5.394a.18.18 0 1 1 .358-.05c.32 2.314 4.044 4.262 7.37 5.093 3.01.753 2.856 2.645 2.848 2.725a.18.18 0 0 1-.18.163m-8.41.904a.18.18 0 0 1-.164-.256c.034-.074.845-1.807 2.198-2.128.625-.148 1.256.029 1.877.525a.181.181 0 0 1-.226.283c-.53-.424-1.057-.578-1.568-.456-1.183.28-1.945 1.91-1.952 1.927a.18.18 0 0 1-.165.105M34.89 76.328a.18.18 0 0 1-.173-.235c.005-.017.53-1.707.078-3.213a.18.18 0 0 1 .346-.104c.485 1.615-.056 3.353-.08 3.426a.18.18 0 0 1-.172.126m6.086.554a.18.18 0 0 1-.135-.06c-.751-.836-.045-4.134.037-4.507a.183.183 0 0 1 .216-.137.18.18 0 0 1 .137.215c-.214.965-.653 3.596-.12 4.187a.18.18 0 0 1-.135.302m-1.581 0a.18.18 0 0 1-.181-.181c0-.015-.005-1.601-.393-4.242a.18.18 0 0 1 .152-.205.18.18 0 0 1 .205.153c.393 2.67.397 4.278.397 4.294 0 .1-.08.18-.18.18m-2.292-.078a.18.18 0 0 1-.086-.34c.655-.354.39-2.34.07-3.507a.18.18 0 1 1 .348-.097c.093.339.875 3.318-.247 3.922a.2.2 0 0 1-.085.022M9.514 55.9a.18.18 0 0 1-.008-.362q.353-.016.702-.068c.1-.01.191.054.205.153a.18.18 0 0 1-.152.206 8 8 0 0 1-.738.07zm-.723-.002h-.01a7 7 0 0 1-.737-.076.18.18 0 1 1 .055-.358q.346.054.701.072a.18.18 0 0 1-.009.362m2.153-.207a.18.18 0 0 1-.044-.356c.231-.058.458-.127.673-.207a.18.18 0 1 1 .125.34 7 7 0 0 1-.71.218.2.2 0 0 1-.044.005m-3.58-.016a.2.2 0 0 1-.048-.006 7 7 0 0 1-.705-.234.18.18 0 0 1 .134-.337q.32.128.666.222a.18.18 0 0 1-.047.355m4.934-.486a.18.18 0 0 1-.083-.341q.32-.165.595-.362a.18.18 0 1 1 .21.294q-.294.21-.64.39a.2.2 0 0 1-.082.02m-6.275-.05a.2.2 0 0 1-.087-.023 6 6 0 0 1-.628-.404.18.18 0 1 1 .215-.29q.278.206.588.378a.18.18 0 0 1-.088.339m7.438-.799a.18.18 0 0 1-.131-.305c.163-.172.3-.354.403-.542a.18.18 0 0 1 .316.176q-.18.321-.456.615a.18.18 0 0 1-.132.056m-8.595-.06a.18.18 0 0 1-.127-.052 5.5 5.5 0 0 1-.496-.56.18.18 0 1 1 .286-.22q.214.276.463.522a.181.181 0 0 1-.126.31m-.882-1.14a.18.18 0 0 1-.157-.091 6 6 0 0 1-.332-.667.18.18 0 0 1 .333-.141q.139.327.312.627a.18.18 0 0 1-.156.271m-.567-1.328a.18.18 0 0 1-.173-.129 7 7 0 0 1-.177-.72.18.18 0 0 1 .355-.067q.064.336.168.683a.18.18 0 0 1-.173.233m-.263-1.419a.18.18 0 0 1-.18-.17 6 6 0 0 1 .005-.747c.008-.1.09-.183.194-.166a.18.18 0 0 1 .167.194 5 5 0 0 0-.005.697.18.18 0 0 1-.17.192zm.114-1.436a.18.18 0 0 1-.176-.221 5 5 0 0 1 .222-.715.18.18 0 1 1 .336.133 5 5 0 0 0-.206.663.18.18 0 0 1-.176.14m.527-1.34a.18.18 0 0 1-.157-.27q.182-.32.414-.622a.18.18 0 1 1 .287.22 5 5 0 0 0-.387.581.18.18 0 0 1-.157.091m.874-1.148a.18.18 0 0 1-.13-.307q.255-.262.545-.503a.18.18 0 1 1 .231.278 7 7 0 0 0-.517.477.18.18 0 0 1-.13.055m4.826-.236a.181.181 0 0 1-.041-.357.77.77 0 0 0 .48-.312.18.18 0 1 1 .302.2c-.152.229-.4.394-.7.464a.2.2 0 0 1-.04.005m-.717-.008-.037-.004a3 3 0 0 1-.722-.26.18.18 0 1 1 .162-.324q.332.166.635.23a.181.181 0 0 1-.038.358m-1.295-.621a.2.2 0 0 1-.105-.034 7 7 0 0 1-.578-.468.18.18 0 0 1 .118-.315.18.18 0 0 1 .043-.3c.228-.105.46-.2.686-.28a.18.18 0 0 1 .12.341 8 8 0 0 0-.655.267.2.2 0 0 1-.072.017l.002.002q.276.247.546.442a.18.18 0 0 1-.105.328m-1.706-.062a.18.18 0 0 1-.102-.33q.306-.209.628-.39a.181.181 0 1 1 .178.315 9 9 0 0 0-.602.374.2.2 0 0 1-.102.031m4.404-.39a.18.18 0 0 1-.173-.13 1 1 0 0 0-.353-.487.18.18 0 1 1 .224-.284c.237.187.402.418.476.669a.18.18 0 0 1-.174.232m-3.775-.51a.18.18 0 0 1-.132-.056q-.237-.254-.485-.552a.18.18 0 1 1 .279-.23q.24.289.47.534a.18.18 0 0 1-.132.305m1.996-.287a.18.18 0 0 1-.04-.357c.309-.07.58-.102.77-.088a.181.181 0 0 1-.024.36 2.5 2.5 0 0 0-.665.08.2.2 0 0 1-.04.005m-2.92-.824a.18.18 0 0 1-.144-.074 17 17 0 0 1-.356-.497l-.068-.1a.18.18 0 1 1 .302-.2l.064.095q.176.255.348.487a.18.18 0 0 1-.145.289m-.79-1.21a.18.18 0 0 1-.159-.096 7 7 0 0 1-.315-.674.181.181 0 0 1 .337-.133c.083.21.184.425.297.636a.18.18 0 0 1-.16.266m-.53-1.342a.18.18 0 0 1-.174-.137 5 5 0 0 1-.13-.738.18.18 0 0 1 .162-.198c.103-.005.188.063.198.162q.034.34.12.686a.18.18 0 0 1-.175.225m-.137-1.435h-.011a.18.18 0 0 1-.17-.192q.024-.377.109-.743a.181.181 0 0 1 .353.081 4 4 0 0 0-.1.685.18.18 0 0 1-.18.17m.322-1.402a.18.18 0 0 1-.168-.249 5 5 0 0 1 .334-.67.18.18 0 0 1 .312.184q-.18.304-.31.622a.18.18 0 0 1-.168.113m.73-1.243a.18.18 0 0 1-.142-.293c.151-.19.318-.378.496-.555a.18.18 0 1 1 .255.256 6 6 0 0 0-.467.523.18.18 0 0 1-.142.07m5.713-.725q-.202 0-.434-.03a.181.181 0 0 1 .046-.36c.142.02.279.027.395.028q.15 0 .277-.018a.18.18 0 0 1 .052.358c-.102.015-.22.015-.336.022m-1.119-.177a.2.2 0 0 1-.049-.006 7 7 0 0 1-.702-.243.18.18 0 1 1 .136-.335q.336.136.665.23a.18.18 0 0 1-.05.354m-3.573-.118a.18.18 0 0 1-.113-.322q.288-.23.603-.431a.18.18 0 1 1 .195.304q-.3.192-.573.41a.18.18 0 0 1-.112.039m5.566-.1-.03-.002a.18.18 0 0 1-.148-.21l.002-.03c0-.065-.033-.21-.256-.446a.18.18 0 1 1 .263-.248q.355.376.355.695a1 1 0 0 1-.007.09.18.18 0 0 1-.179.151m-3.332-.323a.2.2 0 0 1-.084-.021 8 8 0 0 1-.639-.373.2.2 0 0 1-.055-.056q-.08.037-.158.077a.18.18 0 0 1-.162-.324q.336-.169.681-.297a.181.181 0 0 1 .126.34q-.053.018-.104.039.236.146.479.274a.18.18 0 0 1-.084.34m2.464-.752a.2.2 0 0 1-.08-.019 2 2 0 0 0-.634-.186.18.18 0 0 1-.155-.203.177.177 0 0 1 .203-.155q.42.056.748.221a.18.18 0 0 1-.082.342m-3.678-.032a.18.18 0 0 1-.11-.038 9 9 0 0 1-.563-.48.18.18 0 1 1 .246-.264q.259.24.539.459a.181.181 0 0 1-.112.323m1.552-.07a.18.18 0 0 1-.042-.357c.253-.06.503-.1.742-.119a.18.18 0 1 1 .028.36q-.332.027-.686.11a.2.2 0 0 1-.042.006m-2.61-.913a.18.18 0 0 1-.135-.06 8 8 0 0 1-.472-.57.181.181 0 0 1 .29-.215 7 7 0 0 0 .45.542.18.18 0 0 1-.134.303m-.856-1.162a.18.18 0 0 1-.159-.093 4 4 0 0 1-.306-.691.18.18 0 1 1 .343-.113c.068.205.162.417.28.628a.18.18 0 0 1-.158.269m-.433-1.368a.18.18 0 0 1-.18-.17q-.004-.075-.004-.15 0-.317.079-.622a.181.181 0 0 1 .35.09 2.1 2.1 0 0 0-.064.661.18.18 0 0 1-.17.191zm.354-1.377a.18.18 0 0 1-.154-.275q.193-.315.476-.599a.18.18 0 0 1 .256.255q-.253.255-.423.532a.18.18 0 0 1-.155.087m1.006-1.028a.181.181 0 0 1-.103-.33c.36-.25.648-.374.66-.38a.18.18 0 0 1 .142.333c-.002.002-.268.117-.596.345a.2.2 0 0 1-.103.032m67.897 29.653a.18.18 0 0 1-.008-.361c.002 0 .28-.015.677-.12a.18.18 0 1 1 .092.35c-.437.115-.74.13-.752.131zm1.4-.363a.181.181 0 0 1-.073-.346 4.3 4.3 0 0 0 .61-.328.18.18 0 1 1 .198.303q-.312.203-.664.356a.2.2 0 0 1-.072.015m1.205-.786a.18.18 0 0 1-.124-.312q.253-.237.458-.516a.18.18 0 1 1 .291.214 4 4 0 0 1-.5.565.18.18 0 0 1-.125.049m.853-1.157a.18.18 0 0 1-.162-.261q.15-.305.256-.644a.18.18 0 1 1 .346.107 5 5 0 0 1-.277.697.18.18 0 0 1-.163.101m.434-1.372-.03-.003a.18.18 0 0 1-.148-.208q.057-.335.078-.698c.006-.1.086-.18.191-.17a.18.18 0 0 1 .17.191 7 7 0 0 1-.083.737.18.18 0 0 1-.178.15m.08-1.44a.18.18 0 0 1-.181-.169 5 5 0 0 0-.095-.69.18.18 0 0 1 .14-.214.18.18 0 0 1 .214.14q.076.363.102.74a.18.18 0 0 1-.169.192zm-.296-1.41a.18.18 0 0 1-.17-.12 5 5 0 0 0-.282-.638.18.18 0 1 1 .32-.169q.175.332.302.684a.18.18 0 0 1-.17.242m-.673-1.276a.18.18 0 0 1-.147-.075 5 5 0 0 0-.443-.542.18.18 0 1 1 .264-.246q.258.276.473.578a.181.181 0 0 1-.147.285m-3.353-.794h-.005c-.334-.01-.607-.09-.79-.23a.181.181 0 0 1 .22-.287c.12.093.327.148.58.156a.18.18 0 0 1-.005.361m.719-.07a.18.18 0 0 1-.038-.358q.328-.07.664-.201a.18.18 0 1 1 .132.337 4.6 4.6 0 0 1-.72.218zm1.65-.19a.18.18 0 0 1-.115-.042 5 5 0 0 0-.567-.41.181.181 0 0 1 .192-.306q.06.037.12.077.292-.166.561-.37a.18.18 0 0 1 .218.289q-.221.166-.457.31.083.065.163.131a.18.18 0 0 1-.115.32m-3.19-.584a.18.18 0 0 1-.166-.252c.116-.271.354-.451.686-.52a.18.18 0 0 1 .214.14.18.18 0 0 1-.14.214q-.324.068-.428.308a.18.18 0 0 1-.166.11m1.964-.177a.2.2 0 0 1-.072-.014 3.3 3.3 0 0 0-.652-.208.18.18 0 0 1 .07-.355q.351.07.725.23a.18.18 0 0 1-.071.347m2.074-.437a.181.181 0 0 1-.127-.31q.249-.246.463-.522a.18.18 0 1 1 .286.221 6 6 0 0 1-.495.56.18.18 0 0 1-.127.051m.882-1.14a.181.181 0 0 1-.156-.271q.174-.301.31-.626a.18.18 0 1 1 .334.14q-.145.346-.331.667a.18.18 0 0 1-.157.09m.557-1.33a.18.18 0 0 1-.175-.23 6 6 0 0 0 .148-.685.181.181 0 0 1 .357.056 7 7 0 0 1-.156.727.18.18 0 0 1-.174.132m.226-1.424h-.01a.18.18 0 0 1-.171-.19 7 7 0 0 0 .002-.707.18.18 0 0 1 .174-.188c.103 0 .184.074.188.174a8 8 0 0 1-.003.739.18.18 0 0 1-.18.172m-.059-1.444a.18.18 0 0 1-.179-.159l-.012-.093a9 9 0 0 0-.103-.606.18.18 0 0 1 .141-.213.18.18 0 0 1 .213.14q.063.302.107.63l.013.099a.18.18 0 0 1-.18.202m-.295-1.413a.18.18 0 0 1-.173-.128 6 6 0 0 0-.243-.658.18.18 0 0 1 .332-.145q.144.331.257.697a.18.18 0 0 1-.173.234m-5.498-1.297-.02-.001q-.418-.047-.752-.204a.181.181 0 1 1 .154-.327q.28.131.638.171a.18.18 0 0 1-.02.36m.721-.007a.18.18 0 0 1-.02-.36 4 4 0 0 0 .674-.144.18.18 0 0 1 .105.346 4.3 4.3 0 0 1-.759.158m4.197-.016a.18.18 0 0 1-.155-.087 4.6 4.6 0 0 0-.402-.567.18.18 0 0 1 .277-.231q.237.283.435.61a.18.18 0 0 1-.155.275m-2.817-.4a.18.18 0 0 1-.08-.343q.312-.151.604-.349a.18.18 0 1 1 .203.3 5 5 0 0 1-.649.374.2.2 0 0 1-.078.018m-3.354-.213a.18.18 0 0 1-.146-.075 1.5 1.5 0 0 1-.16-.28.6.6 0 0 1-.045-.22q0-.186.122-.368a.18.18 0 1 1 .3.201.3.3 0 0 0-.06.168q0 .038.016.076.048.111.12.211a.18.18 0 0 1-.147.287m5.245-.49a.18.18 0 0 1-.118-.043 4 4 0 0 0-.312-.24l-.145.134a.18.18 0 0 1-.242-.27l.083-.074a.18.18 0 0 1 .238-.262l.015.009q.08-.084.154-.171a.18.18 0 1 1 .274.236l-.12.136q.15.107.29.227a.18.18 0 0 1-.117.319m-4.762-.617a.18.18 0 0 1-.082-.342c.21-.107.45-.196.712-.266a.18.18 0 1 1 .093.35 3.3 3.3 0 0 0-.642.239.2.2 0 0 1-.081.02m3.522-.112a.2.2 0 0 1-.063-.012 4.3 4.3 0 0 0-.667-.19.181.181 0 0 1 .071-.355q.373.076.723.207a.18.18 0 0 1-.064.35m-2.134-.268a.18.18 0 0 1-.019-.36q.369-.04.75-.02a.18.18 0 0 1 .172.188c-.004.1-.088.185-.189.172a5 5 0 0 0-.715.02m3.621-.197a.18.18 0 0 1-.15-.281q.191-.289.353-.606a.18.18 0 1 1 .322.164c-.113.223-.239.44-.375.642a.18.18 0 0 1-.15.081m.656-1.285a.18.18 0 0 1-.17-.245 7 7 0 0 0 .215-.67.181.181 0 0 1 .35.093c-.064.24-.14.478-.226.705a.18.18 0 0 1-.169.117m.373-1.395-.03-.002a.18.18 0 0 1-.149-.209c.039-.228.068-.465.088-.702a.18.18 0 0 1 .36.03c-.02.247-.05.494-.09.732a.18.18 0 0 1-.18.151m.122-1.439h.002a.18.18 0 0 1-.18-.181v-.081q0-.307-.019-.63a.18.18 0 0 1 .17-.192c.1-.008.186.07.191.17q.02.334.02.651v.083a.18.18 0 0 1-.181.18m-.085-1.442a.18.18 0 0 1-.18-.16l-.006-.052a6 6 0 0 0-.112-.64.18.18 0 1 1 .352-.082q.075.327.12.678l.006.053a.18.18 0 0 1-.18.203m-.326-1.406a.18.18 0 0 1-.17-.119 5 5 0 0 0-.283-.637.18.18 0 1 1 .32-.17q.172.325.303.684a.18.18 0 0 1-.17.242m-8.306-.23a.18.18 0 0 1-.171-.24q.125-.362.305-.688a.18.18 0 0 1 .245-.072c.088.049.12.159.072.246q-.166.3-.28.632a.18.18 0 0 1-.17.122m7.626-1.04a.18.18 0 0 1-.145-.072 4 4 0 0 0-.458-.52.18.18 0 1 1 .251-.26q.27.259.497.563a.18.18 0 0 1-.145.29m-6.93-.22a.18.18 0 0 1-.14-.294q.238-.292.526-.54a.181.181 0 0 1 .236.275q-.264.226-.482.493a.18.18 0 0 1-.14.067m5.892-.777a.2.2 0 0 1-.102-.031 4 4 0 0 0-.603-.342.181.181 0 0 1 .152-.328q.344.159.655.37a.18.18 0 0 1-.102.331m-4.8-.158a.18.18 0 0 1-.092-.337q.322-.19.678-.326a.18.18 0 1 1 .13.338 4 4 0 0 0-.625.3.2.2 0 0 1-.091.025m3.493-.447a.2.2 0 0 1-.048-.006 4.4 4.4 0 0 0-.681-.13.181.181 0 0 1 .04-.36c.247.027.496.075.737.142a.18.18 0 0 1-.048.354m-2.15-.07a.18.18 0 0 1-.036-.357q.368-.075.746-.094c.104-.01.184.073.189.172a.18.18 0 0 1-.172.19 4.5 4.5 0 0 0-.69.086z"/></g><defs><clipPath id="a"><path fill="#fff" d="M.333 0h80v80h-80z"/></clipPath></defs></svg>