<svg xmlns="http://www.w3.org/2000/svg" width="81" height="78" fill="none" viewBox="0 0 81 78"><path fill="#F4F1E3" d="M66.975 77.713H13.066s5.72-9.868 14.344-8.632c8.624 1.235 7.762 4.964 14.52 3.747 4.827-.869 3.672-2.434 9.345-4.455 7.974-2.842 15.7 9.34 15.7 9.34"/><path fill="#241726" d="M73.453 17.951a.164.164 0 0 1-.097-.297c.108-.087.798-.802 1.121-1.182a29 29 0 0 0-1.723.323.164.164 0 1 1-.069-.321c2.19-.468 2.217-.38 2.266-.221.084.27-1.385 1.655-1.401 1.666a.16.16 0 0 1-.097.032"/><path fill="#B1739A" d="M70.92 17.993s.16-2.56 1.495-2.094c1.85.645 2.7 5.413-.792 6.448s-4.75-1.837-4.75-1.837l1.875-.43s-1.343-1.214-1.215-2.208c.127-.993 1.176-.118 1.176-.118s-1.226-2.291-.207-2.359c1.018-.067 2.418 2.598 2.418 2.598"/><path fill="#241726" d="M72.496 17.694c-.357 0-.704-.523-.804-.686a.164.164 0 1 1 .28-.172c.138.225.353.469.479.52.001-.137-.092-.474-.22-.774a.164.164 0 0 1 .303-.128c.134.315.337.88.192 1.115a.26.26 0 0 1-.206.124zm-3.155 2.377a.16.16 0 0 1-.104-.038c-.1-.083-.977-.83-.914-1.444.021-.203.139-.279.207-.306.201-.079.49.06.735.224q-.168-.946.175-1.059c.097-.032.394-.127 1.48 1.565a.164.164 0 0 1-.276.178c-.394-.614-.913-1.296-1.109-1.412-.026.121.027.616.145 1.091a.164.164 0 0 1-.267.164c-.294-.255-.657-.472-.758-.446l-.005.035c-.034.332.47.886.797 1.158a.164.164 0 0 1-.106.29m1.536 1.684a3.7 3.7 0 0 1-.9-.106.164.164 0 0 1 .087-.317c.013.004 1.289.34 2.268-.297.59-.384.96-1.045 1.101-1.967a.164.164 0 1 1 .325.05c-.156 1.019-.576 1.757-1.249 2.193-.542.352-1.148.444-1.632.444M2.166 39.458a.16.16 0 0 1-.095-.03c-.015-.012-1.484-1.4-1.4-1.668.05-.163.076-.245 2.265.221a.164.164 0 1 1-.069.322c-.64-.137-1.342-.27-1.723-.323.323.38 1.014 1.095 1.124 1.184a.17.17 0 0 1 .029.23.16.16 0 0 1-.13.064"/><path fill="#B1739A" d="M4.7 39.5s-.158-2.559-1.493-2.093c-1.85.644-2.7 5.413.791 6.448s4.75-1.837 4.75-1.837l-1.875-.43s1.343-1.214 1.216-2.208-1.176-.118-1.176-.118 1.225-2.292.206-2.359c-1.018-.067-2.418 2.598-2.418 2.598"/><path fill="#241726" d="M3.125 39.202h-.024a.26.26 0 0 1-.206-.125c-.144-.235.059-.8.192-1.115a.164.164 0 1 1 .302.128c-.127.3-.22.637-.219.774.126-.051.342-.295.479-.52a.164.164 0 1 1 .28.172c-.1.163-.447.686-.804.686m3.155 2.377a.164.164 0 0 1-.105-.29c.326-.272.83-.827.796-1.159a.1.1 0 0 0-.01-.04c-.085-.025-.454.193-.752.452a.164.164 0 0 1-.267-.164c.111-.45.165-.917.128-1.081-.207.14-.708.804-1.092 1.402a.165.165 0 0 1-.277-.178c1.087-1.693 1.383-1.597 1.48-1.565.23.074.288.43.175 1.058.245-.163.535-.302.735-.223.068.027.186.103.207.305.063.614-.813 1.362-.913 1.445a.16.16 0 0 1-.105.038m-1.536 1.684c-.484 0-1.09-.092-1.632-.444-.673-.436-1.093-1.174-1.249-2.193a.164.164 0 1 1 .325-.05c.141.922.511 1.583 1.101 1.967.979.636 2.256.3 2.268.297a.164.164 0 0 1 .087.317 3.7 3.7 0 0 1-.9.106"/><path fill="#51AEA5" d="M10.175 16.753s1.01-2.996 1.443-2.687.325.83.325.83 1.26-1.628 1.943-1.23.016 1.206.016 1.206 2.115-1.5 2.449-.714-1.574 2.392-1.574 2.392 1.1-.682 1.33.241c.228.923-1.62 1.145-1.735 1.145s.604-.033.388.579c-.215.61-6.028.925-4.585-1.762M7.507 20.05s-2.831 1.408-2.92.883.356-.817.356-.817-2.042.263-2.244-.501.84-.865.84-.865-2.557-.431-2.238-1.223c.319-.793 2.803-.583 2.803-.583s-1.26-.295-.77-1.11c.49-.814 1.955.332 2.036.414s-.45-.403.133-.684c.585-.28 4.923 3.602 2.004 4.485"/><path fill="#51AEA5" d="M10.894 19.576s2.637 1.745 2.227 2.085-.885.1-.885.1 1.25 1.637.69 2.195-1.17-.295-1.17-.295.907 2.43.062 2.55c-.846.12-1.908-2.135-1.908-2.135s.376 1.239-.575 1.223c-.95-.017-.691-1.86-.661-1.97s-.124.592-.66.226c-.534-.365.654-6.064 2.88-3.98"/><path fill="#D45A41" d="M11.608 17.708a1.9 1.9 0 0 0-.894.03 1.894 1.894 0 1 0-3.283 1.03 1.893 1.893 0 0 0 .07 3.69 1.895 1.895 0 0 0 2.273-1.673 1.895 1.895 0 1 0 1.834-3.077m-2.266 1.616-.008.058-.04-.046z"/><path fill="#241726" d="M6.909 18.819a.16.16 0 0 1-.093-.029c-1.138-.777-3.272-.681-3.293-.682-.093.01-.168-.065-.172-.155a.164.164 0 0 1 .156-.172c.092-.005 2.265-.102 3.495.738a.164.164 0 0 1-.093.3m4.699-.947a.164.164 0 0 1-.032-.326c.7-.136 1.91-1.666 2.317-2.244a.165.165 0 0 1 .269.19c-.158.223-1.568 2.191-2.523 2.377zm-.938 6.413a.164.164 0 0 1-.165-.161c-.009-.572-.147-2.123-.665-2.43a.164.164 0 0 1 .167-.282c.768.454.823 2.477.827 2.706a.164.164 0 0 1-.162.167zm.078-6.552a.164.164 0 0 0-.211.097c-.004.01-.39 1.025-1.203 1.184a.16.16 0 0 0-.072.037q-.061-.044-.128-.084c-.64-.363-1.184-.483-1.614-.356-.372.11-.514.363-.53.392a.163.163 0 0 0 .068.22.165.165 0 0 0 .222-.066.57.57 0 0 1 .344-.235c.234-.064.658-.06 1.349.33.873.495.622 1.655.61 1.704a.165.165 0 0 0 .32.073c.012-.05.23-1.05-.363-1.73.894-.27 1.288-1.31 1.305-1.356a.164.164 0 0 0-.097-.21"/><path fill="#FBFCFF" d="M10.072 17.256a.16.16 0 0 1-.156-.113c-.218-.666-.986-.61-.993-.61a.164.164 0 1 1-.027-.327c.357-.033 1.094.107 1.332.835a.164.164 0 0 1-.156.215m2.48 2.426a.164.164 0 0 1-.158-.12c-.137-.493-.854-.794-.861-.797a.164.164 0 0 1 .125-.304c.035.015.873.365 1.052 1.013a.164.164 0 0 1-.158.208m-3.46.962a.164.164 0 0 1-.164-.162.37.37 0 0 0-.12-.274c-.25-.238-.832-.27-1.037-.26a.167.167 0 0 1-.17-.156.165.165 0 0 1 .156-.172c.036 0 .872-.033 1.277.35q.218.207.223.508a.164.164 0 0 1-.163.166z"/><path fill="#51AEA5" d="M71.068 55.226s-2.755-1.553-2.37-1.92c.385-.369.876-.164.876-.164s-1.364-1.543-.846-2.14c.519-.596 1.188.21 1.188.21s-1.079-2.357-.244-2.538 2.056 1.992 2.056 1.992-.463-1.208.486-1.26.822 1.805.8 1.917.081-.599.641-.273-.217 6.096-2.587 4.176m2.74 3.237s.855 3.044.322 3.033-.736-.503-.736-.503-.123 2.055-.911 2.112c-.789.056-.693-.987-.693-.987s-.901 2.431-1.62 1.97-.049-2.863-.049-2.863-.525 1.183-1.233.55c-.71-.633.691-1.859.786-1.923s-.48.367-.647-.26c-.166-.625 4.458-4.163 4.78-1.13"/><path fill="#51AEA5" d="M73.976 55.046s2.207-2.264 2.464-1.798c.257.467-.066.889-.066.889s1.84-.923 2.284-.268c.443.654-.508 1.094-.508 1.094s2.556-.437 2.516.416c-.039.853-2.453 1.475-2.453 1.475s1.287-.137 1.093.793-1.955.332-2.058.282c-.104-.05.558.232.1.69-.46.457-5.836-1.775-3.372-3.573"/><path fill="#D45A41" d="M75.152 56.441a2 2 0 0 0-.198-.069c.356-.2.65-.514.82-.92a1.895 1.895 0 1 0-3.638-.572 1.894 1.894 0 1 0 .398 3.417 1.893 1.893 0 0 0 3.64.622 1.895 1.895 0 0 0-1.022-2.478m-1.714.083.055.018-.053.032z"/><path fill="#241726" d="m70.83 62.1-.022-.002a.164.164 0 0 1-.14-.185c.013-.091.323-2.244 1.378-3.296a.164.164 0 1 1 .232.233c-.976.973-1.282 3.087-1.285 3.108a.164.164 0 0 1-.162.142m1.443-7.94a.164.164 0 0 1-.164-.163c-.003-.712-1.28-2.187-1.772-2.695a.164.164 0 1 1 .236-.228c.19.196 1.86 1.949 1.864 2.922 0 .09-.073.164-.163.164zm3.463 2.374a.164.164 0 0 1-.123-.273c.589-.67 2.587-.346 2.813-.306.09.015.149.1.134.19a.16.16 0 0 1-.19.133c-.563-.097-2.114-.252-2.51.2a.16.16 0 0 1-.124.055m-.519-.242c-.047-.02-.99-.421-1.768.034-.098-.929-1.045-1.51-1.087-1.535a.164.164 0 1 0-.17.282c.01.005.935.573.939 1.402q.002.044.022.078-.054.051-.106.11c-.476.562-.695 1.073-.651 1.519.038.386.26.573.286.593a.16.16 0 0 0 .228-.025.165.165 0 0 0-.022-.23.57.57 0 0 1-.166-.382c-.02-.242.063-.658.576-1.263.648-.766 1.741-.302 1.787-.282a.164.164 0 0 0 .216-.085.164.164 0 0 0-.084-.216"/><path fill="#FBFCFF" d="M70.455 56.56h-.017a.164.164 0 0 1-.146-.18c.037-.357.31-1.055 1.069-1.153a.164.164 0 0 1 .042.326c-.695.09-.784.853-.785.86a.164.164 0 0 1-.163.148m2.705-2.219a.164.164 0 0 1-.138-.254c.022-.032.522-.79 1.193-.845a.164.164 0 1 1 .027.327c-.51.042-.94.69-.944.697a.16.16 0 0 1-.138.075m.436 3.983-.024-.002a.164.164 0 0 1-.138-.187c.005-.035.13-.863.58-1.189a.7.7 0 0 1 .541-.123.164.164 0 1 1-.057.323.36.36 0 0 0-.29.067c-.281.202-.42.769-.45.97a.164.164 0 0 1-.162.14"/><path fill="#241726" d="M27.518 71.155a.16.16 0 0 1-.123-.055c-.02-.022-.497-.538-1.244-.184a.164.164 0 0 1-.14-.297c.781-.37 1.408.01 1.63.264a.164.164 0 0 1-.123.272m-1.296.968a.16.16 0 0 1-.123-.055c-.02-.023-.496-.539-1.243-.184a.165.165 0 0 1-.14-.297c.78-.37 1.407.01 1.63.263a.164.164 0 0 1-.124.273m-2.177-.185a.16.16 0 0 1-.123-.056c-.02-.022-.495-.539-1.243-.184a.165.165 0 0 1-.14-.297c.78-.37 1.407.011 1.63.264a.164.164 0 0 1-.124.273m-2.193-.883a.164.164 0 0 1-.103-.292c.682-.55 1.37-.322 1.637-.124a.164.164 0 0 1-.194.265c-.025-.018-.587-.41-1.237.115a.16.16 0 0 1-.103.036m2.372-.181a.165.165 0 0 1-.097-.296c.705-.516 1.382-.256 1.642-.047a.164.164 0 0 1-.206.256c-.023-.018-.57-.436-1.243.055a.16.16 0 0 1-.096.032m-2.859 1.933a.165.165 0 0 1-.097-.297c.705-.516 1.382-.256 1.642-.047a.164.164 0 0 1-.205.257c-.023-.018-.57-.437-1.243.055a.16.16 0 0 1-.097.031m-1.393-.756a.164.164 0 0 1-.116-.28c.623-.623 1.327-.47 1.612-.303a.164.164 0 0 1-.166.283c-.028-.016-.62-.34-1.215.252a.16.16 0 0 1-.115.048m38.098-1.494a.16.16 0 0 1-.123-.055c-.02-.023-.496-.539-1.244-.184a.164.164 0 0 1-.14-.297c.78-.37 1.408.01 1.63.263a.164.164 0 0 1-.123.273m-1.296.968a.16.16 0 0 1-.122-.056c-.02-.022-.497-.538-1.244-.184a.165.165 0 0 1-.14-.297c.78-.37 1.407.011 1.63.264a.164.164 0 0 1-.124.273m-2.177-.186a.16.16 0 0 1-.123-.055c-.02-.023-.496-.539-1.243-.184a.165.165 0 0 1-.14-.297c.78-.37 1.407.01 1.63.263a.164.164 0 0 1-.124.273m-2.193-.883a.164.164 0 0 1-.103-.292c.682-.549 1.37-.321 1.637-.124a.164.164 0 0 1-.194.265c-.026-.018-.587-.41-1.237.115a.16.16 0 0 1-.103.036m2.372-.18a.165.165 0 0 1-.097-.297c.705-.516 1.382-.256 1.642-.046a.164.164 0 0 1-.206.256c-.023-.018-.57-.437-1.243.055a.16.16 0 0 1-.096.032m-2.859 1.932a.165.165 0 0 1-.097-.297c.705-.516 1.383-.256 1.642-.046a.164.164 0 0 1-.205.256c-.023-.018-.57-.437-1.243.055a.16.16 0 0 1-.097.032m-1.393-.756a.164.164 0 0 1-.116-.28c.624-.624 1.327-.47 1.612-.303a.164.164 0 0 1-.166.283c-.025-.014-.618-.343-1.214.252a.16.16 0 0 1-.116.048M6.337 66.46q-.194 0-.385-.029A.164.164 0 1 1 6 66.107c.201.03.409.031.612.008a.165.165 0 0 1 .037.327 3 3 0 0 1-.312.018m.932-.167a.164.164 0 0 1-.055-.32q.285-.1.568-.262a.164.164 0 1 1 .164.285 4 4 0 0 1-.623.288.2.2 0 0 1-.054.009m-1.922-.04a.2.2 0 0 1-.066-.014 3 3 0 0 1-.598-.35.164.164 0 0 1 .196-.263q.257.191.534.312a.164.164 0 0 1-.066.314m3.059-.605a.164.164 0 0 1-.103-.293q.245-.195.47-.427a.164.164 0 0 1 .237.228q-.241.248-.502.456a.16.16 0 0 1-.102.036m-4.113-.164a.16.16 0 0 1-.12-.052 5 5 0 0 1-.428-.525.165.165 0 0 1 .267-.192q.193.271.4.492a.164.164 0 0 1-.119.277m5.026-.777a.164.164 0 0 1-.13-.263q.194-.259.35-.53a.164.164 0 0 1 .285.163q-.166.29-.374.565a.16.16 0 0 1-.131.065m-5.792-.286a.16.16 0 0 1-.144-.084 4 4 0 0 1-.285-.62.164.164 0 1 1 .309-.112q.106.29.263.572a.164.164 0 0 1-.143.244m-.444-1.23a.164.164 0 0 1-.162-.135 4 4 0 0 1-.056-.644l.165-.038.164.02c0 .214.017.412.05.605a.164.164 0 0 1-.161.193m.013-1.306-.03-.002a.164.164 0 0 1-.131-.193q.064-.33.184-.657a.164.164 0 0 1 .308.114q-.111.301-.17.605a.164.164 0 0 1-.16.133m.451-1.227a.165.165 0 0 1-.143-.244q.163-.294.369-.57a.164.164 0 1 1 .263.198q-.193.256-.345.531a.17.17 0 0 1-.144.085m3.26-.334h-.01a4 4 0 0 1-.678-.104.165.165 0 0 1 .077-.32q.324.078.62.096a.164.164 0 0 1-.01.328m.653-.045a.164.164 0 0 1-.037-.324c.215-.05.375-.139.464-.257a.164.164 0 1 1 .263.196q-.207.278-.653.381zm-1.928-.255a.2.2 0 0 1-.061-.012 5 5 0 0 1-.611-.295.165.165 0 0 1 .162-.285q.274.155.572.275a.164.164 0 0 1-.062.317m-1.201-.415a.164.164 0 0 1-.118-.279l.03-.03a4 4 0 0 1-.454-.42.164.164 0 1 1 .24-.224q.209.222.455.415.114-.1.233-.194a.164.164 0 1 1 .203.258q-.249.196-.472.425a.16.16 0 0 1-.117.05m3.77-.276a.164.164 0 0 1-.157-.12 1.4 1.4 0 0 0-.273-.507.164.164 0 1 1 .244-.22q.129.143.222.327.082.162.123.312a.164.164 0 0 1-.158.208m-2.739-.532a.164.164 0 0 1-.082-.306q.31-.18.62-.293a.164.164 0 0 1 .113.309 3.6 3.6 0 0 0-.568.268.2.2 0 0 1-.083.022m-1.859-.383a.16.16 0 0 1-.137-.074 3.7 3.7 0 0 1-.322-.606.164.164 0 1 1 .303-.126c.08.19.178.377.293.552a.164.164 0 0 1-.137.254m3.74-.001a.2.2 0 0 1-.046-.007 1.5 1.5 0 0 0-.586-.043.164.164 0 1 1-.036-.327c.258-.028.501-.008.715.055a.164.164 0 0 1-.046.322m-4.241-1.204a.164.164 0 0 1-.16-.13 4 4 0 0 1-.08-.68.164.164 0 0 1 .328-.01q.009.32.073.622a.164.164 0 0 1-.161.198m-.066-1.307h-.01a.164.164 0 0 1-.155-.174q.02-.346.07-.669a.164.164 0 0 1 .325.05 7 7 0 0 0-.067.637.164.164 0 0 1-.163.156m.205-1.294a.164.164 0 0 1-.158-.209q.096-.339.233-.64a.165.165 0 0 1 .299.137 4 4 0 0 0-.216.593.164.164 0 0 1-.158.12m1.928-1.087-.018-.001a3 3 0 0 1-.676-.16.164.164 0 1 1 .113-.308q.29.106.6.141a.165.165 0 0 1-.019.328m.655-.01a.164.164 0 0 1-.024-.328c.22-.033.416-.1.551-.188a.165.165 0 0 1 .18.275 1.7 1.7 0 0 1-.707.24m-2.034-.089a.164.164 0 0 1-.134-.26q.063-.087.13-.17a3 3 0 0 1-.452-.406.164.164 0 0 1 .243-.22q.196.216.43.381.054-.053.11-.102a.164.164 0 0 1 .218.246 2.7 2.7 0 0 0-.41.462.16.16 0 0 1-.135.069m2.81-.67a.16.16 0 0 1-.13-.062.4.4 0 0 0-.04-.044 1 1 0 0 0-.43-.235.164.164 0 1 1 .089-.316c.22.061.417.17.569.314a1 1 0 0 1 .07.076.165.165 0 0 1-.129.266m-1.832-.184a.164.164 0 0 1-.072-.312q.33-.16.676-.207a.16.16 0 0 1 .184.142.164.164 0 0 1-.14.184 1.9 1.9 0 0 0-.576.176.2.2 0 0 1-.072.017m-1.697-.459a.16.16 0 0 1-.142-.082 4 4 0 0 1-.289-.62.164.164 0 0 1 .309-.113q.112.307.264.568a.164.164 0 0 1-.142.247m-.458-1.224a.164.164 0 0 1-.16-.13l-.037-.186a7 7 0 0 1-.072-.477.164.164 0 1 1 .326-.038 7 7 0 0 0 .104.632.164.164 0 0 1-.161.199m-.148-1.303a.164.164 0 0 1-.164-.163v-.046c0-.217.012-.43.038-.63a.164.164 0 1 1 .326.041 5 5 0 0 0-.036.59v.042c0 .09-.072.165-.163.166zm.171-1.296a.165.165 0 0 1-.157-.211c.067-.224.154-.439.258-.637a.165.165 0 0 1 .29.154q-.142.27-.234.577a.164.164 0 0 1-.157.117m.61-1.151a.164.164 0 0 1-.126-.27q.223-.265.496-.48a.165.165 0 0 1 .203.258 3 3 0 0 0-.446.432.16.16 0 0 1-.126.06m1.026-.809a.164.164 0 0 1-.074-.31c.368-.185.645-.243.657-.246a.164.164 0 0 1 .066.322 2.6 2.6 0 0 0-.575.217.2.2 0 0 1-.074.017m69.593.413h-.014a2.8 2.8 0 0 1-.68-.149.164.164 0 0 1 .109-.31q.297.105.599.131a.164.164 0 0 1-.014.328m.654-.032a.164.164 0 0 1-.03-.325q.297-.056.586-.187a.165.165 0 0 1 .136.299 2.8 2.8 0 0 1-.662.21zm-1.885-.392a.2.2 0 0 1-.086-.025 4 4 0 0 1-.548-.413.164.164 0 1 1 .221-.243q.24.216.5.377a.164.164 0 0 1-.087.304m3.074-.139a.165.165 0 0 1-.096-.297 4 4 0 0 0 .48-.41.164.164 0 0 1 .23.235 4.5 4.5 0 0 1-.518.441.16.16 0 0 1-.096.031m-4.044-.737a.16.16 0 0 1-.13-.063 4 4 0 0 1-.374-.575.165.165 0 0 1 .29-.152q.142.268.342.525a.164.164 0 0 1-.129.265m4.982-.176A.164.164 0 0 1 76.42 45q.123-.155.246-.326.069-.096.129-.19a.164.164 0 0 1 .277.176q-.066.102-.138.205-.129.18-.259.341a.16.16 0 0 1-.128.061m.692-1.111a.164.164 0 0 1-.152-.227q.123-.298.18-.596a.164.164 0 0 1 .323.06 3.3 3.3 0 0 1-.2.661.17.17 0 0 1-.151.102m.233-1.282a.164.164 0 0 1-.164-.155 2.7 2.7 0 0 0-.104-.609.164.164 0 0 1 .316-.091q.098.338.116.683a.164.164 0 0 1-.156.172zm-.358-1.252a.16.16 0 0 1-.146-.087 3.6 3.6 0 0 0-.344-.523.164.164 0 0 1 .258-.204q.22.278.376.573a.164.164 0 0 1-.144.241m-3.186-.757a.164.164 0 0 1-.004-.328q.278-.005.6-.105a.164.164 0 1 1 .097.314 2.5 2.5 0 0 1-.69.12zm-.628-.154a.16.16 0 0 1-.093-.029.74.74 0 0 1-.322-.623 1 1 0 0 1 .005-.101.16.16 0 0 1 .181-.146c.09.01.156.09.146.18l-.004.067q0 .228.18.353a.164.164 0 0 1-.093.3m3.009-.12a.16.16 0 0 1-.112-.044 5 5 0 0 0-.44-.364 5 5 0 0 1-.503.3.164.164 0 1 1-.15-.292q.268-.14.541-.33a.17.17 0 0 1 .166-.013.2.2 0 0 1 .084.03c.185.13.362.276.526.43a.164.164 0 0 1-.112.283m-1.07-.756a.2.2 0 0 1-.076-.018q-.293-.152-.58-.244a.164.164 0 1 1 .1-.313q.314.101.631.265a.164.164 0 0 1-.075.31m1.017-.08a.164.164 0 0 1-.108-.288q.237-.208.463-.444a.164.164 0 0 1 .237.227q-.237.247-.484.464a.17.17 0 0 1-.108.04m-2.899-.172a.164.164 0 0 1-.088-.303q.248-.158.627-.158a1 1 0 0 1 .103.003c.09.004.16.081.156.172s-.083.164-.173.156q-.047-.005-.086-.003a.85.85 0 0 0-.45.107.16.16 0 0 1-.089.026m3.806-.776a.164.164 0 0 1-.127-.268q.199-.244.39-.514a.165.165 0 0 1 .268.189q-.196.278-.403.533a.16.16 0 0 1-.128.06m.757-1.072a.164.164 0 0 1-.14-.25 12 12 0 0 0 .32-.558.164.164 0 1 1 .293.148l-.09.167q-.12.214-.243.415a.17.17 0 0 1-.14.078m.573-1.177a.164.164 0 0 1-.157-.213c.063-.203.105-.409.125-.61a.164.164 0 1 1 .326.032q-.033.336-.137.675a.164.164 0 0 1-.157.116m.124-1.298a.164.164 0 0 1-.163-.145 3 3 0 0 0-.138-.604.164.164 0 0 1 .31-.107q.114.333.154.672a.164.164 0 0 1-.163.184m-.416-1.235a.16.16 0 0 1-.143-.084q-.151-.266-.354-.521a.164.164 0 1 1 .256-.205q.22.275.384.565a.164.164 0 0 1-.143.245m-.813-1.028a.16.16 0 0 1-.114-.045 6 6 0 0 0-.486-.413.165.165 0 0 1 .198-.263q.275.209.516.438a.164.164 0 0 1-.114.283m-3.918-.22c-.32 0-.521-.216-.54-.577a.164.164 0 0 1 .157-.172c.086-.014.167.065.172.156.013.264.147.264.211.264.09 0 .173.071.175.16s-.057.164-.146.168zm.626-.238a.164.164 0 0 1-.09-.301q.237-.156.48-.398a.165.165 0 0 1 .232 0 .165.165 0 0 1 0 .233 3.4 3.4 0 0 1-.532.44.16.16 0 0 1-.09.026m2.247-.334a.16.16 0 0 1-.085-.023 6 6 0 0 0-.565-.299.164.164 0 1 1 .138-.298q.303.14.596.315a.164.164 0 0 1-.084.305m-3.073-.464a.164.164 0 0 1-.121-.274q.234-.258.689-.314a.164.164 0 0 1 .04.326c-.22.027-.387.098-.487.208a.16.16 0 0 1-.121.053m1.88-.083a.2.2 0 0 1-.05-.008l-.081-.025a.2.2 0 0 1-.067-.02 4 4 0 0 0-.465-.105.164.164 0 1 1 .05-.324q.21.033.432.092.15-.21.282-.438a.164.164 0 1 1 .285.165q-.12.205-.255.4a.164.164 0 0 1-.13.263m.538-1.169a.164.164 0 0 1-.151-.23q.126-.292.219-.598a.165.165 0 0 1 .314.095 6 6 0 0 1-.232.634.16.16 0 0 1-.15.1m.379-1.254-.03-.003a.165.165 0 0 1-.132-.19q.056-.315.077-.633c.005-.09.084-.164.174-.154.09.006.16.084.154.174q-.022.339-.082.67a.165.165 0 0 1-.161.136m.073-1.307a.164.164 0 0 1-.163-.149 3 3 0 0 0-.122-.607.164.164 0 1 1 .313-.1q.103.32.136.676a.164.164 0 0 1-.148.179zm-.398-1.237a.17.17 0 0 1-.14-.079 2.7 2.7 0 0 0-.38-.486.164.164 0 0 1 .235-.23q.248.252.426.545a.164.164 0 0 1-.14.25m-.907-.935a.17.17 0 0 1-.092-.028 4 4 0 0 0-.549-.312.164.164 0 0 1 .14-.297q.323.152.594.337a.164.164 0 0 1-.093.3m-1.182-.565a.2.2 0 0 1-.051-.008 6 6 0 0 0-.619-.168.164.164 0 1 1 .07-.321q.337.074.651.176a.165.165 0 0 1-.051.32m-1.283-.285-.022-.001a6 6 0 0 0-.639-.051.164.164 0 0 1 .002-.329c.011.003.266.001.679.054a.164.164 0 0 1-.02.327"/><path fill="#E38B72" d="M65.117 34.818s-3.5-5.88-2.12-5.556c1.378.324 2.48 4.033 2.48 4.033s.196-7.425 1.124-6.309c.927 1.117 0 4.919 0 4.919s-.009-6.128 1.154-4.919c1.164 1.21 0 5.382 0 5.382s1.164-5.147 1.72-4.15-.834 5.17-.834 5.17 1.947-3.256 2.318-2.509c.37.748-3.204 5.199-3.204 5.199v3.152l-3.01-.527z"/><path fill="#241726" d="M66.83 35.252a.164.164 0 0 1-.158-.208c.08-.29.212-1.123-.138-1.478-.197-.2-.539-.237-1.015-.112a.164.164 0 0 1-.084-.317c.598-.158 1.047-.09 1.333.2.555.562.234 1.745.22 1.795a.164.164 0 0 1-.158.12m-.23-3.183a.164.164 0 0 1-.163-.157c-.031-.682.11-2.581.115-2.662a.164.164 0 1 1 .328.024c-.001.02-.145 1.96-.115 2.623a.164.164 0 0 1-.157.171zm1.156.463q-.015 0-.028-.002a.164.164 0 0 1-.134-.19l.498-2.9a.164.164 0 0 1 .323.055l-.498 2.9a.164.164 0 0 1-.161.137"/><path fill="#DF4F3E" d="M63.808 35.667s.138 9.99-.565 10.269c-.704.278-7.456-3.936-7.456-3.936L40.02 43.183l-15.793 1.318S9.364 51.29 9.223 53.54c-.14 2.251 7.333 6.377 7.333 6.377l3.482-3.64-6.737-2.462 8.958-3.211c-1.796 6.52-2.446 12.004-2.446 12.004l12.744-.215 3.375 9.148 3.953-.339.753-8.944 1.286-.022.754 8.966 3.954.339 3.483-9.443 13.662-.229s-1.957-7.248-5.69-14.91c2.8.838 6.385 1.913 6.956 2.093.957.3 3.566-11.894 3.566-11.894z"/><path fill="#fff" d="m38.111 40.394 1.19 20.737-20.483.055.422 4.165 45.804-1.371-.453-4.194-22.795.923s-.702-21.101-1.335-20.996-2.35.681-2.35.681"/><path fill="#241726" d="M19.24 65.516a.164.164 0 0 1-.163-.148l-.423-4.165a.165.165 0 0 1 .163-.181l20.31-.055-1.18-20.564a.164.164 0 0 1 .112-.164c.07-.024 1.737-.581 2.375-.688a.24.24 0 0 1 .16.044c.626.514 1.193 15.938 1.36 20.943l22.631-.917c.083-.001.16.06.17.147l.453 4.194a.164.164 0 0 1-.158.182l-45.805 1.372zM19 61.35l.388 3.833 45.474-1.362-.417-3.865-22.642.918a.17.17 0 0 1-.118-.044.17.17 0 0 1-.053-.115c-.262-7.88-.8-19.742-1.231-20.823-.563.113-1.741.494-2.119.619l1.183 20.61a.165.165 0 0 1-.164.174z"/><path fill="#E38B72" d="M24.065 15.764s11.59-7.27 16.936-3.05c5.346 4.221 17.481 14.274-2.658 20.845s-19.202-14.56-14.278-17.795"/><path fill="#F4F1E3" d="M24.5 17.787s-6.484 10.773 3.223 15.134c9.706 4.36 1.617-8.928 8.792-8.998s6.652 9.037 9.777 3.587c4.431-7.73-7.788-13.664-5.96-13.945 1.83-.282 3.092-.771 3.639.3 1.617 3.164 20.538 5.908 18.428 16.458s-8.581 18.147-27.15 18.71c-18.57.563-23.563-11.254-18.78-20.116s2.271-10.414 3.819-10.555c1.547-.14 4.213-.575 4.213-.575"/><path fill="#241726" d="M37.253 26.201c-.551 0-2.053-1.163-2.701-1.687a.164.164 0 0 1 .206-.255c.934.754 2.067 1.541 2.417 1.613-.027-.518-1.046-2.95-2.075-5.134a.164.164 0 1 1 .297-.14c.696 1.476 2.291 4.964 2.078 5.463a.22.22 0 0 1-.222.14"/><path fill="#241726" d="M38.039 31.126a.7.7 0 0 1-.353-.105c-1.55-.888-3.112-3.988-3.178-4.12a.164.164 0 1 1 .294-.146c.016.031 1.583 3.143 3.047 3.981.163.093.247.061.297.03.604-.392.538-3.444.355-5.276a.164.164 0 0 1 .327-.033c.05.506.466 4.956-.503 5.584a.5.5 0 0 1-.286.085M29.1 25.638c-1.94 0-2.903-3.763-2.944-3.926a.164.164 0 1 1 .319-.08c.01.038.98 3.808 2.712 3.674.293-.021.5-.136.633-.35.57-.915-.342-3.2-.351-3.222a.164.164 0 0 1 .304-.124c.041.1.983 2.464.326 3.519-.19.305-.489.475-.888.505zM40.592 22.7a1 1 0 0 1-.205-.023c-1.742-.372-2.189-3.59-2.207-3.726a.164.164 0 0 1 .14-.184.16.16 0 0 1 .185.14c.005.032.434 3.125 1.95 3.449.23.049.328-.025.38-.085.436-.5-.1-2.629-.54-3.853a.164.164 0 1 1 .31-.111c.123.342 1.183 3.372.477 4.18a.62.62 0 0 1-.49.213"/><path fill="#DF4F3E" d="M27.968 29.32a1.512 1.512 0 1 0-1.555-2.595 1.512 1.512 0 0 0 1.555 2.594m15.686-5.276a1.512 1.512 0 1 0 0-3.024 1.512 1.512 0 0 0 0 3.024M38.057 11.29s-3.667-5.936-9.815-9.03-15.15 7.526-15.15 7.526l8.09-2.251s-1.527 7.48-.894 8.302 17.77-4.546 17.77-4.546"/><path fill="#fff" d="M12.32 12.037a2.16 2.16 0 1 0 0-4.319 2.16 2.16 0 0 0 0 4.32"/><path fill="#241726" d="M12.32 12.202a2.326 2.326 0 0 1-2.324-2.324 2.327 2.327 0 0 1 2.324-2.324 2.327 2.327 0 0 1 2.324 2.324 2.326 2.326 0 0 1-2.324 2.324m0-4.32c-1.1 0-1.996.896-1.996 1.996s.896 1.995 1.996 1.995 1.995-.895 1.995-1.995-.895-1.996-1.995-1.996"/><path fill="#fff" d="M19.24 15.394S39.73 7.62 41.413 9.38s2.556 4.484 2.556 4.484-23.844 7.84-24.336 6.805c-.493-1.037-.395-5.275-.395-5.275"/><path fill="#241726" d="M19.97 20.926c-.396 0-.446-.104-.485-.187-.503-1.06-.414-5.174-.41-5.349a.17.17 0 0 1 .106-.15c2.108-.799 20.643-7.761 22.352-5.974 1.69 1.77 2.557 4.435 2.593 4.548a.164.164 0 0 1-.104.206c-.06.02-6.032 1.982-11.988 3.792-8.463 2.573-11.162 3.114-12.064 3.114m-.198-.348c.944.466 15.12-3.905 23.989-6.818-.212-.597-1.056-2.79-2.465-4.266-1.176-1.231-13.696 2.909-21.894 6.015-.011.665-.047 4.14.37 5.069"/><path fill="#E38B72" d="M20.805 26.587a2.226 2.226 0 1 0-3.148-3.148 2.226 2.226 0 0 0 3.148 3.148m27.213-7.555a2.226 2.226 0 1 0 0-4.452 2.226 2.226 0 0 0 0 4.452"/><path fill="#241726" d="M19.889 25.895a.164.164 0 0 1-.162-.14c-.173-1.116-.485-1.435-.716-1.506-.36-.11-.756.305-.76.309a.164.164 0 0 1-.233.008.163.163 0 0 1-.008-.232c.022-.023.539-.57 1.096-.4.467.143.785.74.945 1.771a.164.164 0 0 1-.162.19m27.802-7.592a.164.164 0 0 1-.157-.119c-.304-1.04-.277-1.809.079-2.284.334-.446.831-.451.852-.451a.164.164 0 0 1 .001.328.8.8 0 0 0-.594.325c-.283.383-.291 1.071-.023 1.99a.164.164 0 0 1-.158.21"/><path fill="#F4F1E3" d="M18.719 4.6s2.11 2.794 4.923 1.738c2.814-1.055 1.759-4.009 3.588-1.195 1.828 2.813 6.372.909 6.307.85-.065-.058-3.635-4.086-6.659-5-3.024-.915-8.16 3.607-8.16 3.607"/><path fill="#E38B72" d="M18.817 57.228s3.032 1.551 2.02 4.374-6.576 4.51-5.441 2.853c.685-1.002 3.798-1.952 3.798-1.952s-4.076 1.34-4.85.475c-.425-.475 3.879-1.165 4.044-1.168.166-.002-2.465.329-3.098-.623s3.045.788 3.527-1.058-.836-1.74-.836-1.74z"/><path fill="#241726" d="M21.201 54.86s39.154-2.862 39.224-2.65c.07.21 1.043 2.67 1.043 2.67l-40.69 1.979z"/><path fill="#E1AF01" d="m36.352 52.533 7.337-.626v5.32l-6.592.664z"/><path fill="#241726" d="m38.186 53.697 3.669-.312v2.66l-3.296.332zM21.181 7.698a.164.164 0 0 1-.044-.322c.951-.265 3.013-.156 3.1-.15.09.004.16.082.155.172a.16.16 0 0 1-.173.155c-.02 0-2.095-.11-2.994.139a.2.2 0 0 1-.044.006m14.935 5.842a.164.164 0 0 1-.149-.233q.272-.593.69-.653c.408-.057.732.31.745.327a.164.164 0 0 1-.248.214c-.062-.069-.262-.243-.452-.216-.199.03-.347.269-.436.465a.16.16 0 0 1-.15.096m1.746.983a.164.164 0 0 1-.15-.232q.272-.593.69-.654c.409-.058.732.311.746.327a.164.164 0 0 1-.249.215c-.06-.07-.262-.242-.452-.217-.198.03-.346.269-.435.465a.16.16 0 0 1-.15.096m-3.794-.513a.164.164 0 0 1-.15-.232q.272-.593.69-.654c.41-.057.732.311.746.327a.164.164 0 0 1-.249.215c-.06-.07-.258-.248-.452-.216-.198.029-.346.268-.435.464a.16.16 0 0 1-.15.096m1.729.891a.164.164 0 0 1-.15-.232q.272-.593.69-.654c.41-.059.732.311.746.327a.164.164 0 0 1-.249.215c-.06-.07-.258-.25-.452-.216-.198.029-.346.268-.435.464a.16.16 0 0 1-.15.096m-2.117.686a.164.164 0 0 1-.15-.232q.272-.593.69-.654c.41-.059.732.311.745.327a.164.164 0 0 1-.248.215c-.061-.07-.26-.248-.452-.216-.199.029-.346.268-.436.464a.16.16 0 0 1-.15.096"/><path fill="#fff" d="m63.54 35.088-.186 1.731 5.688 1.824.71-1.979z"/><path fill="#241726" d="M69.042 38.807a.2.2 0 0 1-.05-.008l-5.688-1.824a.165.165 0 0 1-.113-.174l.185-1.73a.164.164 0 0 1 .204-.142l6.213 1.577a.163.163 0 0 1 .114.214l-.71 1.979a.165.165 0 0 1-.155.108m-5.51-2.104 5.409 1.735.596-1.658-5.854-1.486z"/><path fill="#fff" d="m19.01 54.899-3.844 4.72 1.54 1.09 4.332-5.104z"/><path fill="#241726" d="M16.706 60.874a.17.17 0 0 1-.095-.03l-1.54-1.091a.165.165 0 0 1-.033-.238l3.845-4.72a.16.16 0 0 1 .181-.051l2.028.706a.164.164 0 0 1 .071.262l-4.332 5.103a.16.16 0 0 1-.125.059m-1.302-1.288 1.274.902 4.08-4.806-1.693-.59zM34.97 47.895q-.351.001-.737-.065c-1.458-.25-2.443-.849-3.06-1.52l-.022.027c-.504.604-1.66 1.52-3.732.87-1.855-.582-2.702-1.6-3.023-2.547-.392.475-.876.888-1.4 1.082-.594.22-1.485.245-2.35-.88-.9-1.17-1.064-2.14-.992-2.832a3.6 3.6 0 0 1-.688.028c-.998-.058-1.748-.568-2.112-1.436-.589-1.398-.096-2.748.585-3.587-.467-.291-1.012-.856-1.139-1.928-.16-1.357.58-2.522 1.427-3.263a2.5 2.5 0 0 1-.877-1.207c-.223-.64-.2-1.194.064-1.645.443-.753 1.397-.929 1.438-.936a.164.164 0 0 1 .057.323c-.009.002-.849.159-1.213.78-.213.365-.225.826-.036 1.37.194.558.522.895.835 1.098.397-.3.8-.504 1.129-.59.603-.156.788.121.84.248.1.239.074.47-.07.65-.221.277-.7.398-1.223.307a2.2 2.2 0 0 1-.648-.215c-.805.678-1.545 1.78-1.396 3.041.115.98.621 1.474 1.034 1.717a2.6 2.6 0 0 1 .635-.486c.468-.24.87-.18 1.075.156.183.3.082.517.006.62-.216.287-.761.383-1.326.23a2 2 0 0 1-.314-.111c-.631.755-1.12 2.02-.58 3.302.401.955 1.215 1.199 1.828 1.235.242.014.488-.003.726-.043.039-.165.09-.306.14-.423.26-.598.76-1.045 1.216-1.088.224-.02.41.06.525.228.126.184.128.406.005.623-.216.38-.846.766-1.605.94-.09.626.033 1.548.915 2.695.497.647 1.045.937 1.627.858.682-.09 1.304-.653 1.756-1.26a2.8 2.8 0 0 1 .033-1.28c.155-.548.477-.86.8-.778.07.018.238.09.253.37.02.387-.265 1.1-.733 1.763.232.918.997 1.97 2.874 2.557 1.89.594 2.93-.225 3.381-.766l.06-.074c-.463-.604-.65-1.24-.63-1.715.023-.595.343-.992.834-1.037.27-.024.491.103.625.359.267.508.147 1.531-.418 2.384.568.639 1.504 1.22 2.919 1.463 2.117.365 3.323-1.046 3.744-1.668a5 5 0 0 0 .314-.545c-.45-.66-.66-1.33-.515-1.732a.57.57 0 0 1 .49-.384.55.55 0 0 1 .57.26c.234.378.155 1.088-.167 1.823q.153.206.344.412c.53.569 1.97 1.833 3.934 1.281 1.764-.495 2.62-2.01 2.853-3.305-.707-.5-1.171-1.086-1.256-1.54-.073-.39.124-.682.527-.782.48-.118.866.19 1.033.826.095.36.116.827.047 1.335.884.581 2.147 1.033 3.558.85 1.22-.159 1.735-1.26 1.95-2.157a6.4 6.4 0 0 0 .154-1.811c-.844-.594-1.461-1.366-1.576-1.887-.084-.38.091-.567.203-.644.27-.187.559-.192.812-.018.478.328.798 1.284.879 2.369.489.32 1.047.574 1.608.67 1.091.187 1.962-.228 2.59-1.234 1.062-1.704.56-3.02.11-3.704a3 3 0 0 1-1.044-.142c-.573-.19-.929-.546-.953-.952-.011-.187.073-.33.231-.392.407-.16 1.214.278 1.799.979q.063.075.134.172c.915-.073 1.975-.528 2.827-1.54 1.084-1.286.472-3.063-.418-4.16-.277.158-.525.2-.681.207-.508.02-.993-.238-1.154-.623a.6.6 0 0 1 .16-.703c.323-.299.912-.111 1.538.486q.098.093.194.198c.36-.3.66-.805.871-1.48.554-1.77-.643-3.178-1.789-3.732a1.6 1.6 0 0 1-.475.738c-.465.41-1.147.524-1.518.255-.127-.09-.395-.364-.154-.935.26-.614.994-.813 1.885-.519.006-.351-.105-.748-.333-1.17-.754-1.394-2.01-1.816-2.962-1.8q-.022.179-.08.356c-.183.561-.602.975-.996.984-.246 0-.443-.147-.545-.419-.154-.405.072-.803.588-1.039a2.4 2.4 0 0 1 .713-.193c-.022-.373-.19-.843-.753-1.274-1.78-1.365-3.486.242-3.557.311a.164.164 0 0 1-.228-.236c.019-.02 1.979-1.874 3.985-.336.54.414.845.95.882 1.513 1.108-.018 2.465.539 3.242 1.977.32.59.403 1.072.37 1.454 1.283.584 2.664 2.162 2.039 4.164-.264.845-.624 1.34-.972 1.629.923 1.146 1.657 3.065.4 4.559-.86 1.02-1.925 1.514-2.876 1.635.464.786.883 2.165-.202 3.906-.878 1.408-2.075 1.53-2.924 1.384a4.5 4.5 0 0 1-1.534-.596c.01.561-.042 1.14-.17 1.67-.34 1.409-1.131 2.263-2.229 2.405-1.397.181-2.704-.233-3.66-.823-.29 1.37-1.216 2.914-3.055 3.43-2.136.6-3.693-.76-4.263-1.373a5 5 0 0 1-.263-.306q-.117.218-.26.431c-.405.6-1.483 1.873-3.334 1.873m-3.742-4.269-.036.002c-.319.029-.52.3-.536.723-.016.395.132.914.497 1.422.446-.725.552-1.563.344-1.96-.083-.158-.187-.187-.269-.187m7.188-.126-.052.004c-.116.015-.187.069-.224.169-.088.245.033.724.362 1.26.218-.583.252-1.093.11-1.322a.21.21 0 0 0-.196-.11m-13.397-.986c-.092 0-.272.178-.38.556a2.4 2.4 0 0 0-.073.782c.137-.224.247-.441.325-.63.198-.482.162-.68.141-.707zm20.297-.883a.5.5 0 0 0-.11.015c-.238.058-.326.182-.284.402.06.32.417.792.984 1.226a3.1 3.1 0 0 0-.064-1.038c-.062-.236-.21-.604-.526-.604m-24.18-1.129-.038.002c-.288.027-.706.342-.945.892a2 2 0 0 0-.079.21c.59-.163 1.077-.457 1.237-.74.08-.143.045-.226.01-.276-.015-.023-.06-.088-.185-.088m29.784-2.48a.42.42 0 0 0-.238.087c-.03.02-.118.081-.07.303.093.419.567 1.019 1.22 1.525-.105-.89-.377-1.617-.71-1.846a.35.35 0 0 0-.202-.069m-32.943-1.085q.096.035.16.052c.465.126.862.042.977-.111.018-.024.072-.096-.023-.252-.148-.242-.468-.126-.645-.035-.15.076-.31.194-.47.346m36.945-2.207a.2.2 0 0 0-.072.01c-.013.006-.028.012-.025.068.016.264.295.516.729.66.208.07.443.112.694.125-.517-.607-1.086-.863-1.326-.863M18.32 31.798c.175.073.322.107.407.12.393.069.768-.009.91-.187q.105-.13.024-.32c-.06-.146-.363-.08-.454-.056-.257.067-.57.22-.887.443m39.458-2.843a.23.23 0 0 0-.16.054q-.158.146-.08.335c.092.22.423.446.836.421a1.2 1.2 0 0 0 .477-.128 4 4 0 0 0-.144-.146c-.354-.338-.707-.536-.93-.536m-.599-4.979c-.355 0-.674.12-.814.45-.075.178-.129.417.043.541.219.158.728.1 1.11-.236.194-.17.322-.38.385-.62a2.2 2.2 0 0 0-.724-.135m-2.864-3.14c-.216.03-.407.084-.56.154-.166.076-.543.29-.416.624.079.21.194.21.23.206.215-.004.54-.296.692-.757.019-.06.04-.137.054-.227"/><path fill="#fff" d="m34.686 70.81 5.517-.428-.182 1.577-4.64.355z"/><path fill="#241726" d="M40.322 70.268a.16.16 0 0 0-.132-.05l-5.517.428a.165.165 0 0 0-.136.233l.695 1.504a.16.16 0 0 0 .15.096h.012l1.033-.08c.226 1.723-6.02 2.009-2.06 2.814 3.598.732 3.706-1.933 3.67-2.654l.162 2.056 1.302-.386-.352-2.039.884-.067a.164.164 0 0 0 .151-.145l.183-1.577a.17.17 0 0 0-.045-.133m-.449 1.538-4.39.336-.549-1.187 5.083-.394z"/><path fill="#fff" d="m42.197 69.924 5.563.225-.417 1.628-5.146.182z"/><path fill="#241726" d="m46.157 71.983 1.192-.042a.164.164 0 0 0 .153-.123l.418-1.629a.165.165 0 0 0-.153-.205l-5.564-.225a.2.2 0 0 0-.12.046.16.16 0 0 0-.05.118v2.036a.164.164 0 0 0 .164.164h.006l1.197-.043-.336 2.148 1.301.387.162-2.057c-.035.721.073 3.387 3.672 2.655 4.023-.818-2.413-1.209-2.042-3.23m-3.796-1.889 5.19.21-.336 1.313-4.854.172z"/></svg>