<svg xmlns="http://www.w3.org/2000/svg" width="22" height="24" fill="none" viewBox="0 0 22 24"><path fill="#FF4646" d="m17.294 14.822-.821-.474 2.201-.59-.364-1.357-3.559.953-1.678-.969a2.1 2.1 0 0 0 0-.77l1.678-.97 3.56.954.363-1.357-2.201-.59.821-.475 3.525-.211.52-2.935-2.802-1.018-1.946 2.947-.821.474.59-2.2-1.358-.365-.954 3.56-1.68.97a2.1 2.1 0 0 0-.665-.387V8.074l2.605-2.605-.994-.994-1.611 1.611v-.948l1.574-3.15L11 0 8.723 1.989l1.574 3.149v.948L8.686 4.475l-.994.994 2.605 2.605v1.938a2.1 2.1 0 0 0-.666.386l-1.68-.97-.953-3.559-1.358.364.59 2.202-.821-.475-1.946-2.947L.66 6.031l.52 2.935 3.525.212.821.474-2.201.59.364 1.357 3.559-.953 1.678.969a2.1 2.1 0 0 0 0 .77l-1.678.97-3.56-.954-.363 1.357 2.201.59-.821.474-3.525.212-.52 2.935 2.802 1.018 1.946-2.947.821-.475-.59 2.202 1.358.364.954-3.56 1.68-.97c.194.167.42.3.665.386v1.939L7.692 18.53l.994.994 1.611-1.611v.948l-1.574 3.15L11 24l2.277-1.989-1.574-3.149v-.948l1.611 1.611.994-.994-2.605-2.605v-1.938a2.1 2.1 0 0 0 .666-.386l1.68.97.953 3.559 1.358-.364-.59-2.202.822.475 1.945 2.947 2.802-1.018-.52-2.935z"/></svg>